<?xml version="1.0" encoding="UTF-8"?>
<svg id="_레이어_2" data-name="레이어_2" xmlns="http://www.w3.org/2000/svg" width="400" height="400" viewBox="0 0 400 400">
  <g id="_레이어_1-2" data-name="레이어_1">
    <rect width="400" height="400" rx="8" ry="8" fill="#e9e6eb"/>
    <circle cx="339.999" cy="200" r="30" fill="#b4b4cc"/>
    <path d="M281.999,0h110C396.414,0,399.999,3.585,399.999,8v56.667c0,1.104-.896,2-2,2h-116c-1.104,0-2-.896-2-2V2C279.999.896,280.895,0,281.999,0Z" fill="#b4b4cc"/>
    <rect x="334.999" y="180" width="10" height="40" rx="5" ry="5" fill="#7a82a0"/>
    <g>
      <path d="M317.687,48.55h-5.261v-26.082h-5.391v-4.909h10.651v30.991Z" fill="#7a82a0"/>
      <path d="M339.998,29.525c1.315.088,2.527.351,3.639.789,1.11.438,2.082,1.052,2.915,1.841s1.483,1.725,1.95,2.806c.468,1.082.702,2.339.702,3.77,0,1.491-.278,2.872-.833,4.143-.556,1.271-1.314,2.367-2.279,3.288s-2.126,1.644-3.484,2.17c-1.359.525-2.857.789-4.494.789-2.659,0-4.953-.621-6.882-1.863s-3.405-2.871-4.427-4.888l3.988-3.024c.789,1.666,1.768,2.937,2.938,3.813,1.168.877,2.586,1.315,4.252,1.315.877,0,1.672-.132,2.389-.395.716-.264,1.344-.643,1.885-1.14s.957-1.089,1.25-1.775c.291-.687.438-1.469.438-2.346,0-.993-.175-1.848-.525-2.564-.352-.716-.826-1.3-1.425-1.753-.6-.453-1.323-.781-2.17-.986-.849-.204-1.769-.307-2.762-.307h-.789c-.292,0-.585.007-.877.021s-.585.037-.876.065c-.293.03-.557.06-.789.088l-.701-2.762,8.547-8.767h-12.887v-4.516h19.463v4.208l-8.154,7.979Z" fill="#7a82a0"/>
      <path d="M368.381,17.821c1.242.438,2.309,1.052,3.201,1.841.891.789,1.592,1.725,2.104,2.806.512,1.082.768,2.251.768,3.507,0,.818-.125,1.63-.373,2.433-.248.805-.607,1.659-1.074,2.564-.467.906-1.074,1.863-1.818,2.871-.746,1.009-1.63,2.142-2.652,3.397l-5.567,6.795h11.968v4.515h-22.006l11.484-13.852c1.607-1.958,2.77-3.631,3.485-5.02.716-1.388,1.073-2.622,1.073-3.704,0-.555-.087-1.081-.262-1.578-.176-.496-.454-.935-.834-1.314s-.869-.68-1.468-.899c-.6-.219-1.323-.328-2.17-.328-.789,0-1.513.117-2.17.351-.657.234-1.221.569-1.688,1.008-.467.438-.854.972-1.161,1.601-.307.628-.504,1.337-.592,2.126h-5.304c.176-1.637.562-3.075,1.162-4.318.598-1.241,1.373-2.264,2.322-3.068.949-.804,2.061-1.402,3.332-1.797s2.652-.592,4.143-.592,2.855.219,4.098.657Z" fill="#7a82a0"/>
    </g>
  </g>
</svg>