<?xml version="1.0" encoding="UTF-8"?>
<svg id="_레이어_2" data-name="레이어_2" xmlns="http://www.w3.org/2000/svg" width="400" height="400" viewBox="0 0 400 400">
  <g id="_레이어_1-2" data-name="레이어_1">
    <path d="M392,0H8C3.582,0,0,3.582,0,8v384c0,4.418,3.582,8,8,8h384c4.418,0,8-3.582,8-8V8c0-4.418-3.582-8-8-8ZM309.431,78.604c.899-1.44,2.04-2.7,3.42-3.78s2.889-1.92,4.529-2.52c1.64-.601,3.2-.88,4.681-.84h.42v7.26c-.681.08-1.41.25-2.19.51-.78.261-1.49.6-2.13,1.021-.641.42-1.15.93-1.53,1.529-.38.601-.55,1.32-.51,2.16-.4.081-.79.12-1.17.12h-6.75c-.04-.159-.07-.3-.09-.42-.021-.12-.03-.26-.03-.42,0-1.64.45-3.181,1.351-4.62ZM285,25.913c8.271,0,15,6.729,15,15s-6.729,15-15,15-15-6.729-15-15,6.729-15,15-15ZM225,25.913c8.271,0,15,6.729,15,15s-6.729,15-15,15-15-6.729-15-15,6.729-15,15-15ZM105,236.362c8.271,0,15,6.729,15,15s-6.729,15-15,15-15-6.729-15-15,6.729-15,15-15ZM75,215.913c-8.271,0-15-6.729-15-15s6.729-15,15-15,15,6.729,15,15-6.729,15-15,15ZM105,163.638c-8.271,0-15-6.729-15-15s6.729-15,15-15,15,6.729,15,15-6.729,15-15,15ZM135,185.913c8.271,0,15,6.729,15,15s-6.729,15-15,15-15-6.729-15-15,6.729-15,15-15ZM165,236.362c8.271,0,15,6.729,15,15s-6.729,15-15,15-15-6.729-15-15,6.729-15,15-15ZM165,163.638c-8.271,0-15-6.729-15-15s6.729-15,15-15,15,6.729,15,15-6.729,15-15,15ZM195,185.913c8.271,0,15,6.729,15,15s-6.729,15-15,15-15-6.729-15-15,6.729-15,15-15ZM225,236.362c8.271,0,15,6.729,15,15s-6.729,15-15,15-15-6.729-15-15,6.729-15,15-15ZM225,163.638c-8.271,0-15-6.729-15-15s6.729-15,15-15,15,6.729,15,15-6.729,15-15,15ZM195,77.275c8.271,0,15,6.729,15,15s-6.729,15-15,15-15-6.729-15-15,6.729-15,15-15ZM165,25.913c8.271,0,15,6.729,15,15s-6.729,15-15,15-15-6.729-15-15,6.729-15,15-15ZM135,77.275c8.271,0,15,6.729,15,15s-6.729,15-15,15-15-6.729-15-15,6.729-15,15-15ZM105,25.913c8.271,0,15,6.729,15,15s-6.729,15-15,15-15-6.729-15-15,6.729-15,15-15ZM75,77.275c8.271,0,15,6.729,15,15s-6.729,15-15,15-15-6.729-15-15,6.729-15,15-15ZM45,25.913c8.271,0,15,6.729,15,15s-6.729,15-15,15-15-6.729-15-15,6.729-15,15-15ZM45,133.638c8.271,0,15,6.729,15,15s-6.729,15-15,15-15-6.729-15-15,6.729-15,15-15ZM45,236.362c8.271,0,15,6.729,15,15s-6.729,15-15,15-15-6.729-15-15,6.729-15,15-15ZM45,374.087c-8.271,0-15-6.729-15-15s6.729-15,15-15,15,6.729,15,15-6.729,15-15,15ZM75,319.087c-8.271,0-15-6.729-15-15s6.729-15,15-15,15,6.729,15,15-6.729,15-15,15ZM105,374.087c-8.271,0-15-6.729-15-15s6.729-15,15-15,15,6.729,15,15-6.729,15-15,15ZM135,319.087c-8.271,0-15-6.729-15-15s6.729-15,15-15,15,6.729,15,15-6.729,15-15,15ZM165,374.087c-8.271,0-15-6.729-15-15s6.729-15,15-15,15,6.729,15,15-6.729,15-15,15ZM195,319.087c-8.271,0-15-6.729-15-15s6.729-15,15-15,15,6.729,15,15-6.729,15-15,15ZM225,374.087c-8.271,0-15-6.729-15-15s6.729-15,15-15,15,6.729,15,15-6.729,15-15,15ZM254.193,319.087c-8.271,0-15-6.729-15-15s6.729-15,15-15,15,6.729,15,15-6.729,15-15,15ZM254.193,215.913c-8.271,0-15-6.729-15-15s6.729-15,15-15,15,6.729,15,15-6.729,15-15,15ZM254.193,107.275c-8.271,0-15-6.729-15-15s6.729-15,15-15,15,6.729,15,15-6.729,15-15,15ZM285,374.087c-8.271,0-15-6.729-15-15s6.729-15,15-15,15,6.729,15,15-6.729,15-15,15ZM285,266.362c-8.271,0-15-6.729-15-15s6.729-15,15-15,15,6.729,15,15-6.729,15-15,15ZM285,163.638c-8.271,0-15-6.729-15-15s6.729-15,15-15,15,6.729,15,15-6.729,15-15,15ZM304.902,114.604h-9.36v-28.801l-5.88-1.859,5.88-12.3h9.36v42.96ZM339.88,114.604h-16.08v-2.04c0-1.28.26-2.431.78-3.45.52-1.021,1.359-1.83,2.521-2.43.079-.08.229-.17.449-.271.22-.1.45-.189.69-.27s.459-.16.66-.24c.199-.08.359-.12.479-.12h10.5v8.82ZM340.901,82.925c0-.028-.005-.054-.005-.081-.013,1.998-.409,3.766-1.195,5.301-.801,1.56-1.84,2.979-3.12,4.26s-2.721,2.47-4.32,3.57-3.2,2.2-4.8,3.3c-1.6,1.101-3.12,2.26-4.56,3.479-1.44,1.221-2.641,2.591-3.601,4.11-.76,1.24-1.22,2.5-1.38,3.78s-.359,2.601-.6,3.96h-9.6c.039-2.641.42-5,1.14-7.08s1.649-3.939,2.79-5.58c1.14-1.64,2.439-3.109,3.899-4.41,1.46-1.3,2.95-2.47,4.471-3.51,1.52-1.04,3-1.989,4.439-2.851,1.44-.859,2.73-1.689,3.87-2.489,1.141-.8,2.05-1.591,2.73-2.37.68-.78,1.02-1.63,1.02-2.55,0-1.08-.381-1.97-1.14-2.67-.761-.699-1.601-1.25-2.521-1.65v-7.8c1.44,0,2.9.3,4.38.899,1.479.601,2.82,1.41,4.021,2.431,1.2,1.02,2.18,2.21,2.939,3.569.746,1.336,1.122,2.77,1.136,4.3,0-.034.005-.065.005-.099v.181ZM360.04,79.385c-.721,0-1.41.06-2.07.18s-1.251.33-1.771.63-.939.73-1.26,1.29c-.32.561-.479,1.26-.479,2.1v19.021c0,.88.159,1.59.479,2.13s.74.97,1.26,1.29,1.11.54,1.771.66c.66.119,1.35.18,2.07.18v7.74h-1.62c-1.881,0-3.651-.36-5.311-1.08-1.66-.721-3.1-1.7-4.319-2.94-1.221-1.239-2.19-2.689-2.91-4.35-.721-1.659-1.08-3.43-1.08-5.311v-15.6c0-1.88.359-3.649,1.08-5.31.72-1.659,1.689-3.11,2.91-4.351,1.22-1.239,2.659-2.22,4.319-2.939,1.659-.72,3.43-1.08,5.311-1.08h1.62v7.74ZM380.08,100.475v2.909c-.36,1.961-1.001,3.641-1.921,5.04-.92,1.401-2.039,2.561-3.359,3.48-1.32.921-2.811,1.601-4.47,2.04-1.661.44-3.431.66-5.311.66v-7.74c.56,0,1.16-.05,1.8-.15.64-.099,1.23-.279,1.771-.54.54-.26.999-.619,1.38-1.08.38-.459.57-1.05.57-1.77,0-2.521-.07-4.43-.21-5.73-.141-1.299-.551-2.229-1.23-2.79-.681-.56-1.71-.859-3.09-.899-1.38-.039-3.33-.061-5.851-.061v-7.739h6.301c1.879,0,3.649.359,5.31,1.08,1.659.72,3.109,1.7,4.351,2.939,1.239,1.24,2.209,2.69,2.909,4.351s1.051,3.43,1.051,5.31v.69ZM370.6,83.164c-.081-.8-.291-1.449-.63-1.949-.341-.5-.771-.88-1.29-1.141-.521-.26-1.091-.439-1.71-.54-.621-.1-1.271-.149-1.95-.149v-7.74h1.62c1.68,0,3.279.29,4.8.87,1.52.58,2.88,1.38,4.08,2.399,1.2,1.021,2.199,2.241,3,3.66.8,1.421,1.34,2.95,1.62,4.59h-9.54Z" fill="#ed1c24"/>
    <circle cx="339.999" cy="200" r="30" fill="#b4b4cc"/>
    <rect x="334.999" y="180" width="10" height="40" rx="5" ry="5" fill="#7a82a0"/>
  </g>
</svg>