<?xml version="1.0" encoding="UTF-8"?>
<svg id="_레이어_2" data-name="레이어_2" xmlns="http://www.w3.org/2000/svg" width="400" height="400" viewBox="0 0 400 400">
  <g id="_레이어_1-2" data-name="레이어_1">
    <g opacity=".8">
      <path d="M392,0H8C3.582,0,0,3.582,0,8v384c0,4.418,3.582,8,8,8h384c4.418,0,8-3.582,8-8V8c0-4.418-3.582-8-8-8ZM38,370.589c0,5.514-4.486,10-10,10s-10-4.486-10-10v-146c0-5.514,4.486-10,10-10s10,4.486,10,10v146ZM38,180.589c0,5.514-4.486,10-10,10s-10-4.486-10-10V34.589c0-5.514,4.486-10,10-10s10,4.486,10,10v146ZM82,378c0,5.514-4.486,10-10,10s-10-4.486-10-10v-66c0-5.514,4.486-10,10-10s10,4.486,10,10v66ZM82,268c0,5.514-4.486,10-10,10s-10-4.486-10-10v-136c0-5.514,4.486-10,10-10s10,4.486,10,10v136ZM82,88c0,5.514-4.486,10-10,10s-10-4.486-10-10V22c0-5.514,4.486-10,10-10s10,4.486,10,10v66ZM126,370.589c0,5.514-4.486,10-10,10s-10-4.486-10-10v-146c0-5.514,4.486-10,10-10s10,4.486,10,10v146ZM126,180.589c0,5.514-4.486,10-10,10s-10-4.486-10-10V34.589c0-5.514,4.486-10,10-10s10,4.486,10,10v146ZM170,378c0,5.514-4.486,10-10,10s-10-4.486-10-10v-66c0-5.514,4.486-10,10-10s10,4.486,10,10v66ZM170,268c0,5.514-4.486,10-10,10s-10-4.486-10-10v-136c0-5.514,4.486-10,10-10s10,4.486,10,10v136ZM170,88c0,5.514-4.486,10-10,10s-10-4.486-10-10V22c0-5.514,4.486-10,10-10s10,4.486,10,10v66ZM214,370.589c0,5.514-4.486,10-10,10s-10-4.486-10-10v-146c0-5.514,4.486-10,10-10s10,4.486,10,10v146ZM214,180.589c0,5.514-4.486,10-10,10s-10-4.486-10-10V34.589c0-5.514,4.486-10,10-10s10,4.486,10,10v146ZM258,378c0,5.514-4.486,10-10,10s-10-4.486-10-10v-66c0-5.514,4.486-10,10-10s10,4.486,10,10v66ZM258,268c0,5.514-4.486,10-10,10s-10-4.486-10-10v-136c0-5.514,4.486-10,10-10s10,4.486,10,10v136ZM258,88c0,5.514-4.486,10-10,10s-10-4.486-10-10V22c0-5.514,4.486-10,10-10s10,4.486,10,10v66Z" fill="#ed1e79"/>
    </g>
    <g>
      <rect x="288.999" y="87.5" width="90" height="225" rx="8" ry="8" fill="#222226"/>
      <g>
        <path d="M312.973,220.599h-6.005v-25.293h-5.786v-5.655h11.791v30.948Z" fill="#7a82a0"/>
        <path d="M323.099,204.687l1.14-14.86h18.41l-.175,5.129h-13.37l-.613,6.838c.76-.292,1.519-.533,2.279-.723.76-.189,1.593-.285,2.498-.285,1.432,0,2.784.212,4.056.635,1.271.424,2.389,1.045,3.353,1.863.965.818,1.732,1.834,2.302,3.046.57,1.213.854,2.608.854,4.187,0,1.637-.284,3.112-.854,4.427-.569,1.315-1.381,2.433-2.433,3.354s-2.302,1.637-3.748,2.148c-1.446.511-3.062.767-4.844.767-2.426,0-4.501-.41-6.225-1.228-1.725-.818-3.347-1.929-4.866-3.332l3.507-4.077c1.169,1.052,2.367,1.871,3.595,2.455s2.543.876,3.945.876c1.841,0,3.28-.482,4.317-1.447,1.037-.964,1.557-2.235,1.557-3.813,0-.76-.146-1.447-.438-2.06-.292-.614-.717-1.147-1.271-1.6-.556-.453-1.205-.796-1.95-1.03-.745-.233-1.571-.351-2.477-.351-.849,0-1.645.109-2.39.329s-1.483.504-2.214.855l-3.944-2.104Z" fill="#7a82a0"/>
        <path d="M361.932,190.171c1.276.45,2.378,1.073,3.307,1.871.928.798,1.646,1.748,2.152,2.849.508,1.103.762,2.306.762,3.61,0,.812-.116,1.625-.348,2.436-.232.812-.581,1.661-1.044,2.545-.465.885-1.052,1.82-1.762,2.806-.712.986-1.545,2.074-2.502,3.263l-4.828,5.959h10.962v5.089h-22.446l11.614-13.876c1.479-1.798,2.545-3.342,3.197-4.633.653-1.29.979-2.429.979-3.415,0-.522-.087-1.015-.262-1.479-.174-.464-.442-.87-.805-1.218s-.819-.623-1.37-.826c-.551-.203-1.203-.305-1.957-.305-.696,0-1.349.102-1.958.305-.608.203-1.139.507-1.588.913-.449.407-.812.907-1.087,1.501-.276.595-.457,1.269-.544,2.022h-5.872c.115-1.681.479-3.153,1.087-4.415.609-1.261,1.414-2.312,2.414-3.154,1.001-.841,2.146-1.471,3.437-1.892,1.29-.42,2.689-.631,4.198-.631,1.565,0,2.986.225,4.263.674Z" fill="#7a82a0"/>
      </g>
      <circle cx="333.999" cy="264.563" r="25" fill="#b4b4cc"/>
      <circle cx="333.999" cy="118.575" r="15" fill="#b4b4cc"/>
      <rect x="328.999" y="244.563" width="10" height="40" rx="5" ry="5" fill="#7a82a0"/>
    </g>
  </g>
</svg>