<?xml version="1.0" encoding="UTF-8"?>
<svg id="_레이어_2" data-name="레이어_2" xmlns="http://www.w3.org/2000/svg" width="400" height="400" viewBox="0 0 400 400">
  <g id="_레이어_1-2" data-name="레이어_1">
    <rect width="400" height="400" rx="8" ry="8" fill="#e9e6eb"/>
    <path d="M244.086,257.357c-9.241-24.775-32.741-32.72-53.462-27.089-18.518,5.032-31.051,23.052-29.37,42.167,1.58,17.973,14.476,31.756,30.649,35.648,6.121,1.473,9.12,8.379,5.765,13.707-8.389,13.326-22.559,23.294-37.99,26.415-18.517,1.986-16.57,28.722,2.018,28.031,13.387-.825,26.292-4.772,38.109-11.2,37.16-19.839,59.237-67.586,44.282-107.679Z" fill="#605213"/>
    <g>
      <path d="M194.123,252.054c1.407.497,2.624,1.185,3.647,2.064,1.023.881,1.816,1.928,2.377,3.144.559,1.217.84,2.544.84,3.984,0,.896-.129,1.793-.385,2.688s-.641,1.832-1.152,2.808c-.512.977-1.16,2.009-1.943,3.096-.784,1.089-1.704,2.288-2.76,3.601l-5.328,6.575h12.096v5.616h-24.768l12.816-15.312c1.631-1.984,2.808-3.688,3.527-5.112.721-1.424,1.08-2.68,1.08-3.768,0-.576-.096-1.12-.288-1.633-.192-.511-.488-.96-.888-1.344-.4-.384-.904-.688-1.512-.912-.609-.224-1.328-.336-2.16-.336-.769,0-1.488.112-2.16.336-.672.225-1.256.561-1.752,1.009s-.896,1-1.2,1.655c-.305.656-.504,1.4-.601,2.232h-6.479c.128-1.855.528-3.48,1.2-4.872.672-1.393,1.561-2.552,2.664-3.48,1.104-.928,2.367-1.623,3.792-2.088,1.423-.463,2.968-.695,4.632-.695,1.729,0,3.295.248,4.704.743Z" fill="#999954"/>
      <path d="M229.931,251.646v21.792h4.464v5.279h-4.464v6.912h-6.528v-6.912h-17.088l-1.151-5.184,16.991-21.888h7.776ZM223.403,258.846l-10.991,14.593h10.991v-14.593Z" fill="#999954"/>
    </g>
  </g>
</svg>