<?xml version="1.0" encoding="UTF-8"?>
<svg id="_레이어_2" data-name="레이어_2" xmlns="http://www.w3.org/2000/svg" width="400" height="400" viewBox="0 0 400 400">
  <g id="_레이어_1-2" data-name="레이어_1">
    <rect width="400" height="400" rx="8" ry="8" fill="#222226"/>
    <circle cx="344.999" cy="200" r="27.5" fill="#b4b4cc"/>
    <path d="M347.664,49.168l1.248-16.272h20.16l-.192,5.616h-14.64l-.672,7.488c.832-.32,1.663-.583,2.496-.792.832-.208,1.743-.312,2.735-.312,1.567,0,3.048.232,4.44.696,1.392.464,2.615,1.145,3.672,2.04,1.056.896,1.896,2.008,2.52,3.336.625,1.328.937,2.856.937,4.584,0,1.792-.312,3.408-.937,4.848-.623,1.44-1.512,2.664-2.664,3.672-1.151,1.008-2.52,1.792-4.104,2.352s-3.353.84-5.305.84c-2.656,0-4.928-.448-6.815-1.344-1.889-.896-3.665-2.112-5.328-3.648l3.841-4.464c1.279,1.152,2.592,2.048,3.936,2.688,1.344.641,2.783.96,4.32.96,2.016,0,3.592-.528,4.728-1.584,1.136-1.056,1.704-2.448,1.704-4.176,0-.832-.16-1.584-.48-2.256-.32-.672-.784-1.256-1.392-1.752-.608-.496-1.319-.872-2.136-1.128-.816-.255-1.721-.384-2.713-.384-.928,0-1.799.12-2.615.36-.816.24-1.625.552-2.424.936l-4.32-2.304Z" fill="#7a82a0"/>
    <rect x="339.999" y="180" width="10" height="40" rx="5" ry="5" fill="#7a82a0"/>
  </g>
</svg>