<?xml version="1.0" encoding="UTF-8"?>
<svg id="_레이어_2" data-name="레이어_2" xmlns="http://www.w3.org/2000/svg" width="400" height="400" viewBox="0 0 400 400">
  <g id="_레이어_1-2" data-name="레이어_1">
    <rect width="400" height="400" rx="8" ry="8" fill="#f2f285"/>
    <rect x="305" y="126" width="60" height="150" rx="8" ry="8" fill="#b4b4cc"/>
    <rect x="330" y="146" width="10" height="40" rx="5" ry="5" fill="#7a82a0"/>
    <rect x="330" y="216" width="10" height="40" rx="5" ry="5" fill="#7a82a0"/>
    <rect x="325" y="246" width="20" height="10" rx="5" ry="5" fill="#dedbe0"/>
    <path d="M352.472,46.952c1.376.161,2.647.48,3.815.96s2.191,1.136,3.072,1.968c.88.833,1.568,1.824,2.064,2.976.496,1.152.744,2.496.744,4.032,0,1.632-.305,3.144-.912,4.536-.608,1.392-1.449,2.592-2.521,3.6-1.072,1.008-2.368,1.8-3.888,2.376-1.521.576-3.192.864-5.016.864-2.977,0-5.553-.648-7.729-1.944s-3.889-3-5.137-5.112l4.896-3.84c.928,1.632,2.023,2.88,3.288,3.744,1.264.864,2.743,1.296,4.44,1.296.863,0,1.663-.127,2.4-.384.734-.256,1.367-.624,1.896-1.104s.943-1.063,1.248-1.752c.304-.688.456-1.448.456-2.28,0-.928-.177-1.744-.528-2.448-.353-.704-.833-1.272-1.44-1.704s-1.344-.76-2.207-.984c-.865-.224-1.809-.336-2.832-.336-.225,0-.504.008-.84.024s-.673.024-1.009.024-.672.017-1.008.048c-.336.032-.616.064-.84.096l-.96-3.504,8.928-8.928h-13.729v-5.616h22.033v5.136l-8.688,8.256Z" fill="#b4b4cc"/>
  </g>
</svg>