<?xml version="1.0" encoding="UTF-8"?>
<svg id="_레이어_2" data-name="레이어_2" xmlns="http://www.w3.org/2000/svg" width="400" height="400" viewBox="0 0 400 400">
  <g id="_레이어_1-2" data-name="레이어_1">
    <path d="M400,320l-80,80H8c-4.418,0-8-3.582-8-8V8C0,3.582,3.582,0,8,0h384c4.418,0,8,3.582,8,8v312Z" fill="#f5f4f3"/>
    <g>
      <g>
        <path d="M110.483,89.82h-6.48v-40.2h8.82l11.58,23.28,3.659,8.34h.48l3.54-8.34,11.46-23.28h8.82v40.2h-6.48v-24.66l.24-5.82h-.48l-2.46,5.82-11.1,22.26h-7.8l-11.101-22.26-2.46-5.82h-.479l.24,5.82v24.66Z" fill="#008dd7"/>
        <path d="M163.342,89.82h-6.48v-40.2h6.48v40.2ZM189.022,55.44h-30.18v-5.82h30.18v5.82ZM188.121,72.48h-29.279v-5.76h29.279v5.76ZM189.022,89.82h-30.18v-5.82h30.18v5.82Z" fill="#008dd7"/>
        <path d="M199.042,89.82h-6.48v-40.2h6.48v40.2ZM223.821,89.82h-29.34v-5.82h29.34v5.82Z" fill="#008dd7"/>
        <path d="M233.001,89.82h-6.48v-40.2h6.48v40.2ZM257.78,89.82h-29.34v-5.82h29.34v5.82Z" fill="#008dd7"/>
        <path d="M280.94,76.32h-6l-17.88-26.7h7.92l9.48,14.28,3.359,5.1h.48l3.3-5.1,9.42-14.28h7.979l-18.06,26.7ZM281.119,89.82h-6.42v-17.7h6.42v17.7Z" fill="#008dd7"/>
        <path d="M132.592,154.42c-3.96,0-7.29-.561-9.99-1.68s-4.73-2.709-6.09-4.77c-1.36-2.061-2.04-4.49-2.04-7.29v-.36h6.479v.96c0,1.601.36,2.931,1.08,3.99.72,1.061,1.92,1.859,3.601,2.399,1.68.54,3.999.811,6.96.811,2.559,0,4.599-.189,6.12-.57,1.52-.38,2.609-.979,3.27-1.8.66-.819.99-1.85.99-3.09,0-1.76-.561-3.04-1.681-3.84s-2.939-1.44-5.46-1.92l-9.84-1.62c-2.24-.44-4.24-1.09-6-1.95-1.761-.859-3.13-2.02-4.109-3.48-.981-1.459-1.471-3.289-1.471-5.489,0-1.44.32-2.859.96-4.261.64-1.399,1.64-2.659,3-3.779,1.359-1.12,3.13-2.011,5.311-2.67,2.18-.66,4.85-.99,8.01-.99,3.92,0,7.14.6,9.66,1.8,2.52,1.2,4.39,2.83,5.61,4.89,1.219,2.061,1.829,4.41,1.829,7.051v.359h-6.42v-.78c0-1.64-.359-3.009-1.08-4.109-.72-1.1-1.899-1.92-3.54-2.46s-3.86-.811-6.659-.811c-2.44,0-4.41.201-5.91.601-1.5.4-2.591.99-3.271,1.77-.681.78-1.02,1.791-1.02,3.03,0,1.12.24,2.04.72,2.76.48.72,1.22,1.29,2.22,1.71s2.28.811,3.841,1.17l9.779,1.681c2.68.479,4.91,1.199,6.69,2.159,1.779.961,3.109,2.181,3.99,3.66.879,1.48,1.319,3.201,1.319,5.16,0,2.04-.58,3.96-1.739,5.76-1.161,1.801-2.98,3.251-5.461,4.351s-5.699,1.649-9.659,1.649Z" fill="#008dd7"/>
        <path d="M159.052,153.82h-6.48v-40.2h6.48v40.2ZM185.871,136.48h-31.2v-5.82h31.2v5.82ZM189.111,153.82h-6.42v-40.2h6.42v40.2Z" fill="#008dd7"/>
        <path d="M212.271,154.42c-4,0-7.4-.68-10.199-2.04-2.801-1.359-4.941-3.329-6.42-5.909-1.48-2.58-2.221-5.69-2.221-9.33v-23.521h6.42v23.101c0,2.721.43,4.92,1.29,6.6s2.199,2.91,4.021,3.69c1.819.779,4.189,1.17,7.109,1.17,2.96,0,5.35-.391,7.17-1.17,1.82-.78,3.15-2.011,3.99-3.69s1.26-3.879,1.26-6.6v-23.101h6.48v23.521c0,3.64-.74,6.75-2.22,9.33-1.48,2.58-3.621,4.55-6.42,5.909-2.801,1.36-6.221,2.04-10.261,2.04Z" fill="#008dd7"/>
        <path d="M241.91,153.82h-6.48v-40.2h8.82l11.58,23.28,3.659,8.34h.48l3.54-8.34,11.46-23.28h8.82v40.2h-6.48v-24.66l.24-5.82h-.48l-2.46,5.82-11.1,22.26h-7.8l-11.101-22.26-2.46-5.82h-.479l.24,5.82v24.66Z" fill="#008dd7"/>
        <g>
          <path d="M279.621,220.42c-4.204,0-7.823-.616-10.756-1.832-3.063-1.27-5.417-3.126-6.994-5.516-.233-.354-.45-.718-.649-1.092v7.84h-36.16v-34.38h-15.06v34.38h-10.421v-34.38h-15.84v-9.82h77.48v6.807c.734-1.2,1.708-2.303,2.907-3.29,1.559-1.284,3.579-2.308,6.003-3.04,2.357-.714,5.247-1.076,8.589-1.076,4.202,0,7.741.671,10.52,1.994,2.873,1.368,5.051,3.278,6.472,5.676,1.399,2.366,2.108,5.081,2.108,8.07v2.359h-10.42v-2.78c0-1.236-.254-2.25-.753-3.014-.463-.707-1.302-1.264-2.492-1.656-1.432-.471-3.462-.71-6.034-.71-2.251,0-4.066.18-5.396.533-1.372.366-1.996.828-2.278,1.151-.354.406-.526.968-.526,1.716,0,.713.129,1.269.384,1.651.257.383.704.712,1.33.975.883.37,2.047.725,3.461,1.052l9.724,1.672c2.89.517,5.342,1.313,7.301,2.369,2.095,1.132,3.695,2.611,4.76,4.397,1.062,1.79,1.601,3.87,1.601,6.184,0,2.42-.692,4.723-2.058,6.843-1.372,2.127-3.502,3.842-6.332,5.096-2.726,1.209-6.248,1.821-10.47,1.821ZM269.981,202.32v2.96c0,1.185.247,2.149.734,2.866.459.677,1.32,1.222,2.559,1.619,1.475.475,3.61.715,6.348.715,2.386,0,4.281-.172,5.635-.511,1.065-.266,1.825-.651,2.197-1.113.369-.458.548-1.059.548-1.836,0-1.443-.481-1.954-.843-2.212-.604-.432-1.906-1.057-4.672-1.583l-9.791-1.611c-2.463-.483-4.647-1.195-6.553-2.127-2.072-1.012-3.719-2.412-4.893-4.164-.364-.541-.674-1.122-.929-1.742v8.739h9.659ZM260.356,210c-.568-1.632-.854-3.411-.854-5.319v-2.2h-23.959v7.52h24.813ZM260.011,192.721c-.379-1.208-.57-2.546-.57-4,0-1.101.157-2.198.469-3.28h-24.367v7.28h24.469ZM178.901,219.82l-4.638-10.44h-18.604l-4.638,10.44h-18.479v-17.34h-19.64v17.34h-10.48v-44.2h10.48v17.04h19.64v-17.04h10.42v36.306l16.202-36.306h11.715l19.726,44.2h-11.703ZM169.901,199.56l-4.188-9.429-.751-1.83-.729,1.778-4.211,9.48h9.88Z" fill="#008dd7"/>
          <path d="M278.721,177.02c3.92,0,7.14.6,9.66,1.8,2.52,1.2,4.39,2.83,5.61,4.89,1.219,2.061,1.829,4.41,1.829,7.051v.359h-6.42v-.78c0-1.64-.359-3.009-1.08-4.109-.72-1.1-1.899-1.92-3.54-2.46s-3.86-.811-6.659-.811c-2.44,0-4.41.201-5.91.601-1.5.4-2.591.99-3.271,1.77-.681.78-1.02,1.791-1.02,3.03,0,1.12.24,2.04.72,2.76.48.72,1.22,1.29,2.22,1.71s2.28.811,3.841,1.17l9.779,1.681c2.68.479,4.91,1.199,6.69,2.159,1.779.961,3.109,2.181,3.99,3.66.879,1.48,1.319,3.201,1.319,5.16,0,2.04-.58,3.96-1.739,5.76-1.161,1.801-2.98,3.251-5.461,4.351s-5.699,1.649-9.659,1.649-7.29-.561-9.99-1.68-4.73-2.709-6.09-4.77c-1.36-2.061-2.04-4.49-2.04-7.29v-.36h6.479v.96c0,1.601.36,2.931,1.08,3.99.72,1.061,1.92,1.859,3.601,2.399,1.68.54,3.999.811,6.96.811,2.559,0,4.599-.189,6.12-.57,1.52-.38,2.609-.979,3.27-1.8.66-.819.99-1.85.99-3.09,0-1.76-.561-3.04-1.681-3.84s-2.939-1.44-5.46-1.92l-9.84-1.62c-2.24-.44-4.24-1.09-6-1.95-1.761-.859-3.13-2.02-4.109-3.48-.981-1.459-1.471-3.289-1.471-5.489,0-1.44.32-2.859.96-4.261.64-1.399,1.64-2.659,3-3.779,1.359-1.12,3.13-2.011,5.311-2.67,2.18-.66,4.85-.99,8.01-.99M259.222,177.62v5.82h-25.68v11.28h24.779v5.76h-24.779v11.52h25.68v5.82h-32.16v-40.2h32.16M223.781,177.62v5.82h-15.779v34.38h-6.421v-34.38h-15.84v-5.82h38.04M169.581,177.62l17.94,40.2h-7.32l-4.638-10.44h-21.204l-4.638,10.44h-7.2l17.94-40.2h9.119M156.944,201.56h16.034l-5.438-12.24-2.34-5.7h-.479l-2.34,5.7-5.438,12.24M140.962,177.62v40.2h-6.42v-17.34h-23.64v17.34h-6.48v-40.2h6.48v17.04h23.64v-17.04h6.42M278.721,173.02c-3.539,0-6.624.391-9.169,1.162-2.496.754-4.623,1.803-6.33,3.12v-3.683h-81.48v13.82h15.84v34.38h14.421v-34.38h11.06v34.38h40.16v-4.283c1.39,1.159,3.02,2.128,4.877,2.898,3.177,1.317,7.054,1.984,11.522,1.984,4.566,0,8.255-.652,11.28-1.993,3.193-1.415,5.616-3.38,7.202-5.84,1.578-2.45,2.377-5.117,2.377-7.927,0-2.678-.632-5.101-1.88-7.202-1.012-1.701-2.42-3.154-4.196-4.338h5.416v-4.359c0-3.353-.803-6.41-2.386-9.087-1.629-2.748-4.096-4.922-7.333-6.465-3.05-1.452-6.879-2.189-11.38-2.189h0ZM271.971,187.936c.012,0,.32-.257,1.271-.511.796-.212,2.291-.465,4.878-.465,2.938,0,4.563.332,5.409.61.729.24,1.242.542,1.444.851.283.433.427,1.078.427,1.919v1.443c-.071-.013-.144-.026-.215-.039l-9.693-1.666c-1.279-.298-2.315-.613-3.083-.935-.262-.11-.385-.2-.431-.238-.02-.064-.057-.23-.057-.543,0-.253.035-.389.05-.424h0ZM237.542,187.44h19.959c-.041.426-.061.853-.061,1.28,0,.688.038,1.355.114,2h-20.012v-3.28h0ZM262.321,200.32v-.899c.392.317.804.617,1.237.899h-1.237ZM279.621,208.48c-3.15,0-4.858-.336-5.735-.619-.893-.287-1.368-.621-1.516-.838-.259-.381-.39-.968-.39-1.744v-1.769c.089.018.179.036.269.054l.061.012.061.01,9.789,1.612c2.472.474,3.462.992,3.774,1.195.025.084.067.276.067.627,0,.276-.04.497-.104.579,0,0,0,0,0,0-.007,0-.285.221-1.126.431-.822.206-2.382.451-5.15.451h0ZM237.542,204.48h19.959v.2c0,1.147.093,2.255.279,3.319h-20.238v-3.52h0ZM172.176,173.62h-14.31l-1.058,2.37-11.847,26.547v-28.917h-14.42v17.04h-15.64v-17.04h-14.48v48.2h14.48v-17.34h15.64v17.34h21.78l1.056-2.376,3.582-8.064h16.004l3.582,8.064,1.056,2.376h16.086l-2.513-5.63-17.94-40.2-1.058-2.37h0ZM163.098,197.56l1.863-4.194,1.863,4.194h-3.727Z" fill="#008dd7"/>
        </g>
        <path d="M150.682,281.82h-6.48v-40.2h6.48v40.2ZM177.501,264.48h-31.2v-5.82h31.2v5.82ZM180.741,281.82h-6.42v-40.2h6.42v40.2Z" fill="#008dd7"/>
        <path d="M191.781,281.82h-6.48v-40.2h6.48v40.2ZM217.461,247.44h-30.18v-5.82h30.18v5.82ZM216.561,264.48h-29.279v-5.76h29.279v5.76ZM217.461,281.82h-30.18v-5.82h30.18v5.82Z" fill="#008dd7"/>
        <path d="M227.481,281.82h-6.48v-40.2h20.88c3.039,0,5.67.461,7.89,1.38,2.221.921,3.92,2.261,5.101,4.021,1.18,1.761,1.77,3.899,1.77,6.42,0,2.24-.471,4.16-1.409,5.76-.94,1.601-2.301,2.86-4.08,3.78-1.78.921-3.931,1.461-6.45,1.62v.42c1.56.4,2.77,1.05,3.63,1.95.859.899,1.65,1.99,2.37,3.27l6.72,11.58h-7.439l-6.421-11.1c-.6-1.08-1.25-1.95-1.949-2.61-.7-.66-1.57-1.14-2.61-1.44-1.041-.3-2.421-.449-4.14-.449h-7.38v15.6ZM227.481,247.44v13.8h14.34c2.679,0,4.699-.52,6.06-1.56,1.359-1.04,2.04-2.82,2.04-5.341,0-2.438-.681-4.199-2.04-5.279-1.36-1.08-3.381-1.62-6.06-1.62h-14.34Z" fill="#008dd7"/>
        <path d="M157.611,346.42c-4.041,0-7.311-.669-9.811-2.01-2.5-1.34-4.311-3.199-5.43-5.58-1.12-2.379-1.68-5.149-1.68-8.31v-1.86h6.84v1.92c0,2.16.29,3.951.87,5.37.579,1.421,1.6,2.48,3.06,3.18,1.46.701,3.511,1.051,6.15,1.051s4.689-.34,6.149-1.021c1.46-.68,2.5-1.71,3.12-3.09s.931-3.109.931-5.19v-25.26h6.779v25.2c0,3.081-.561,5.79-1.68,8.13-1.12,2.34-2.931,4.17-5.43,5.49-2.501,1.32-5.79,1.979-9.87,1.979Z" fill="#008dd7"/>
        <path d="M198.591,346.42c-4.2,0-7.87-.849-11.01-2.55-3.141-1.699-5.58-4.1-7.32-7.2-1.74-3.099-2.61-6.75-2.61-10.949s.87-7.85,2.61-10.95c1.74-3.1,4.18-5.5,7.32-7.2,3.14-1.699,6.81-2.55,11.01-2.55,4.279,0,7.979.851,11.1,2.55,3.12,1.7,5.55,4.101,7.29,7.2,1.74,3.101,2.61,6.75,2.61,10.95s-.87,7.851-2.61,10.949c-1.74,3.101-4.17,5.501-7.29,7.2-3.12,1.701-6.82,2.55-11.1,2.55ZM198.591,340.18c3.159,0,5.79-.511,7.89-1.53,2.101-1.021,3.67-2.6,4.71-4.74,1.04-2.14,1.561-4.869,1.561-8.189,0-3.36-.521-6.1-1.561-8.221-1.04-2.119-2.609-3.689-4.71-4.71-2.1-1.02-4.73-1.529-7.89-1.529s-5.79.51-7.891,1.529c-2.1,1.021-3.659,2.591-4.68,4.71-1.02,2.121-1.53,4.86-1.53,8.221,0,3.32.511,6.05,1.53,8.189,1.021,2.141,2.58,3.72,4.68,4.74,2.101,1.02,4.73,1.53,7.891,1.53Z" fill="#008dd7"/>
        <path d="M245.931,345.82h-23.34v-40.2h22.5c2.6,0,4.81.381,6.63,1.141,1.819.76,3.22,1.88,4.2,3.359.979,1.48,1.47,3.28,1.47,5.4,0,2.36-.69,4.36-2.07,6-1.38,1.641-3.61,2.64-6.689,3v.42c3.439.4,6,1.47,7.68,3.21s2.521,3.93,2.521,6.57c0,2.279-.501,4.26-1.5,5.939-1.001,1.68-2.46,2.961-4.381,3.84-1.92.881-4.26,1.32-7.02,1.32ZM229.011,311.44v11.04h15.18c2.28,0,3.979-.45,5.101-1.351,1.119-.899,1.68-2.289,1.68-4.17s-.54-3.27-1.62-4.17c-1.08-.899-2.74-1.35-4.979-1.35h-15.36ZM229.011,327.82v12.18h16.2c2.399,0,4.189-.489,5.37-1.47,1.179-.979,1.77-2.55,1.77-4.71,0-2.12-.591-3.649-1.77-4.59-1.181-.939-2.971-1.41-5.37-1.41h-16.2Z" fill="#008dd7"/>
      </g>
      <g>
        <path d="M279.621,220.42c-4.204,0-7.823-.616-10.756-1.832-3.063-1.27-5.417-3.126-6.994-5.516-.233-.354-.45-.718-.649-1.092v7.84h-36.16v-34.38h-15.06v34.38h-10.421v-34.38h-15.84v-9.82h77.48v6.807c.734-1.2,1.708-2.303,2.907-3.29,1.559-1.284,3.579-2.308,6.003-3.04,2.357-.714,5.247-1.076,8.589-1.076,4.202,0,7.741.671,10.52,1.994,2.873,1.368,5.051,3.278,6.472,5.676,1.399,2.366,2.108,5.081,2.108,8.07v2.359h-10.42v-2.78c0-1.236-.254-2.25-.753-3.014-.463-.707-1.302-1.264-2.492-1.656-1.432-.471-3.462-.71-6.034-.71-2.251,0-4.066.18-5.396.533-1.372.366-1.996.828-2.278,1.151-.354.406-.526.968-.526,1.716,0,.713.129,1.269.384,1.651.257.383.704.712,1.33.975.883.37,2.047.725,3.461,1.052l9.724,1.672c2.89.517,5.342,1.313,7.301,2.369,2.095,1.132,3.695,2.611,4.76,4.397,1.062,1.79,1.601,3.87,1.601,6.184,0,2.42-.692,4.723-2.058,6.843-1.372,2.127-3.502,3.842-6.332,5.096-2.726,1.209-6.248,1.821-10.47,1.821ZM269.981,202.32v2.96c0,1.185.247,2.149.734,2.866.459.677,1.32,1.222,2.559,1.619,1.475.475,3.61.715,6.348.715,2.386,0,4.281-.172,5.635-.511,1.065-.266,1.825-.651,2.197-1.113.369-.458.548-1.059.548-1.836,0-1.443-.481-1.954-.843-2.212-.604-.432-1.906-1.057-4.672-1.583l-9.791-1.611c-2.463-.483-4.647-1.195-6.553-2.127-2.072-1.012-3.719-2.412-4.893-4.164-.364-.541-.674-1.122-.929-1.742v8.739h9.659ZM260.356,210c-.568-1.632-.854-3.411-.854-5.319v-2.2h-23.959v7.52h24.813ZM260.011,192.721c-.379-1.208-.57-2.546-.57-4,0-1.101.157-2.198.469-3.28h-24.367v7.28h24.469ZM178.901,219.82l-4.638-10.44h-18.604l-4.638,10.44h-18.479v-17.34h-19.64v17.34h-10.48v-44.2h10.48v17.04h19.64v-17.04h10.42v36.306l16.202-36.306h11.715l19.726,44.2h-11.703ZM169.901,199.56l-4.188-9.429-.751-1.83-.729,1.778-4.211,9.48h9.88Z" fill="#ed1c24"/>
        <path d="M278.721,177.02c3.92,0,7.14.6,9.66,1.8,2.52,1.2,4.39,2.83,5.61,4.89,1.219,2.061,1.829,4.41,1.829,7.051v.359h-6.42v-.78c0-1.64-.359-3.009-1.08-4.109-.72-1.1-1.899-1.92-3.54-2.46s-3.86-.811-6.659-.811c-2.44,0-4.41.201-5.91.601-1.5.4-2.591.99-3.271,1.77-.681.78-1.02,1.791-1.02,3.03,0,1.12.24,2.04.72,2.76.48.72,1.22,1.29,2.22,1.71s2.28.811,3.841,1.17l9.779,1.681c2.68.479,4.91,1.199,6.69,2.159,1.779.961,3.109,2.181,3.99,3.66.879,1.48,1.319,3.201,1.319,5.16,0,2.04-.58,3.96-1.739,5.76-1.161,1.801-2.98,3.251-5.461,4.351s-5.699,1.649-9.659,1.649-7.29-.561-9.99-1.68-4.73-2.709-6.09-4.77c-1.36-2.061-2.04-4.49-2.04-7.29v-.36h6.479v.96c0,1.601.36,2.931,1.08,3.99.72,1.061,1.92,1.859,3.601,2.399,1.68.54,3.999.811,6.96.811,2.559,0,4.599-.189,6.12-.57,1.52-.38,2.609-.979,3.27-1.8.66-.819.99-1.85.99-3.09,0-1.76-.561-3.04-1.681-3.84s-2.939-1.44-5.46-1.92l-9.84-1.62c-2.24-.44-4.24-1.09-6-1.95-1.761-.859-3.13-2.02-4.109-3.48-.981-1.459-1.471-3.289-1.471-5.489,0-1.44.32-2.859.96-4.261.64-1.399,1.64-2.659,3-3.779,1.359-1.12,3.13-2.011,5.311-2.67,2.18-.66,4.85-.99,8.01-.99M259.222,177.62v5.82h-25.68v11.28h24.779v5.76h-24.779v11.52h25.68v5.82h-32.16v-40.2h32.16M223.781,177.62v5.82h-15.779v34.38h-6.421v-34.38h-15.84v-5.82h38.04M169.581,177.62l17.94,40.2h-7.32l-4.638-10.44h-21.204l-4.638,10.44h-7.2l17.94-40.2h9.119M156.944,201.56h16.034l-5.438-12.24-2.34-5.7h-.479l-2.34,5.7-5.438,12.24M140.962,177.62v40.2h-6.42v-17.34h-23.64v17.34h-6.48v-40.2h6.48v17.04h23.64v-17.04h6.42M278.721,173.02c-3.539,0-6.624.391-9.169,1.162-2.496.754-4.623,1.803-6.33,3.12v-3.683h-81.48v13.82h15.84v34.38h14.421v-34.38h11.06v34.38h40.16v-4.283c1.39,1.159,3.02,2.128,4.877,2.898,3.177,1.317,7.054,1.984,11.522,1.984,4.566,0,8.255-.652,11.28-1.993,3.193-1.415,5.616-3.38,7.202-5.84,1.578-2.45,2.377-5.117,2.377-7.927,0-2.678-.632-5.101-1.88-7.202-1.012-1.701-2.42-3.154-4.196-4.338h5.416v-4.359c0-3.353-.803-6.41-2.386-9.087-1.629-2.748-4.096-4.922-7.333-6.465-3.05-1.452-6.879-2.189-11.38-2.189h0ZM271.971,187.936c.012,0,.32-.257,1.271-.511.796-.212,2.291-.465,4.878-.465,2.938,0,4.563.332,5.409.61.729.24,1.242.542,1.444.851.283.433.427,1.078.427,1.919v1.443c-.071-.013-.144-.026-.215-.039l-9.693-1.666c-1.279-.298-2.315-.613-3.083-.935-.262-.11-.385-.2-.431-.238-.02-.064-.057-.23-.057-.543,0-.253.035-.389.05-.424h0ZM237.542,187.44h19.959c-.041.426-.061.853-.061,1.28,0,.688.038,1.355.114,2h-20.012v-3.28h0ZM262.321,200.32v-.899c.392.317.804.617,1.237.899h-1.237ZM279.621,208.48c-3.15,0-4.858-.336-5.735-.619-.893-.287-1.368-.621-1.516-.838-.259-.381-.39-.968-.39-1.744v-1.769c.089.018.179.036.269.054l.061.012.061.01,9.789,1.612c2.472.474,3.462.992,3.774,1.195.025.084.067.276.067.627,0,.276-.04.497-.104.579,0,0,0,0,0,0-.007,0-.285.221-1.126.431-.822.206-2.382.451-5.15.451h0ZM237.542,204.48h19.959v.2c0,1.147.093,2.255.279,3.319h-20.238v-3.52h0ZM172.176,173.62h-14.31l-1.058,2.37-11.847,26.547v-28.917h-14.42v17.04h-15.64v-17.04h-14.48v48.2h14.48v-17.34h15.64v17.34h21.78l1.056-2.376,3.582-8.064h16.004l3.582,8.064,1.056,2.376h16.086l-2.513-5.63-17.94-40.2-1.058-2.37h0ZM163.098,197.56l1.863-4.194,1.863,4.194h-3.727Z" fill="#f2f285"/>
      </g>
    </g>
    <path d="M320,400v-76c0-2.209,1.791-4,4-4h76l-80,80Z" fill="#dedbe0"/>
  </g>
</svg>