<?xml version="1.0" encoding="UTF-8"?>
<svg id="_레이어_2" data-name="레이어_2" xmlns="http://www.w3.org/2000/svg" width="400" height="400" viewBox="0 0 400 400">
  <g id="_레이어_1-2" data-name="레이어_1">
    <rect width="400" height="400" rx="8" ry="8" fill="#f2f285"/>
    <g>
      <rect x="299.999" y="74.285" width="80" height="161.428" rx="2" ry="2" fill="#b4b4cc"/>
      <g>
        <path d="M329.85,138.034h-7.516v-31.652h-7.24v-7.077h14.756v38.729Z" fill="#7a82a0"/>
        <path d="M361.721,99.305l-11.41,16.402c.512-.365.996-.676,1.454-.933.457-.255.941-.466,1.453-.631s1.061-.274,1.646-.329c.584-.055,1.242-.083,1.975-.083,1.682,0,3.236.266,4.663.795,1.426.531,2.66,1.299,3.702,2.304,1.043,1.006,1.847,2.24,2.414,3.703.566,1.463.851,3.127.851,4.992,0,2.012-.366,3.832-1.098,5.458-.731,1.628-1.737,3.017-3.017,4.169-1.281,1.152-2.798,2.048-4.554,2.688-1.755.639-3.657.96-5.705.96-2.194,0-4.206-.311-6.034-.933-1.829-.622-3.41-1.499-4.745-2.633-1.335-1.133-2.368-2.496-3.1-4.087s-1.097-3.374-1.097-5.348c0-.988.109-1.966.329-2.935.219-.969.576-2.002,1.069-3.1.494-1.097,1.143-2.304,1.947-3.621.805-1.316,1.773-2.815,2.908-4.498l8.173-12.343h8.174ZM347.404,128.571c.365.823.858,1.536,1.481,2.14.621.603,1.371,1.079,2.249,1.426.878.348,1.828.521,2.853.521s1.965-.165,2.825-.494c.858-.329,1.591-.795,2.194-1.399s1.069-1.325,1.398-2.167c.329-.841.494-1.736.494-2.688s-.165-1.819-.494-2.605c-.329-.786-.795-1.462-1.398-2.03-.604-.566-1.336-1.015-2.194-1.344-.86-.329-1.82-.494-2.88-.494-1.098,0-2.076.174-2.936.521-.859.348-1.6.814-2.222,1.398-.622.585-1.097,1.271-1.426,2.057-.329.787-.494,1.637-.494,2.551s.183,1.783.549,2.605Z" fill="#7a82a0"/>
      </g>
      <g>
        <path d="M372.423,192.776c-.474-.382-1.029-.583-1.605-.583-.706,0-1.363.302-1.853.849-.461.516-.697,1.199-.647,1.873.047.647.348,1.232.845,1.647.699.585.832,1.236.441,2.177-.939,2.264-2.47,3.766-4.658,4.553.415-.438.796-.922,1.138-1.452,1.508-2.332,2.203-5.051,2.128-8.312-.03-1.292-1.1-2.323-2.484-2.348-1.307,0-2.359.945-2.501,2.247-.022.198-.023.398-.023.598.001.096.001.192-.004.286-.133,2.297-.587,3.807-1.517,5.049-.454.607-.968,1.051-1.568,1.335-.64.303-1.384-.132-1.438-.838-.036-.47-.076-.94-.122-1.409-.051-.531-.096-1.062-.143-1.594-.124-1.447-.253-2.943-.501-4.416-.672-3.991-2.452-7.715-5.771-12.077-1.061-1.394-2.632-2.211-4.542-2.364-.255-.02-.507-.031-.755-.031-1.987,0-3.939.632-5.969,1.932-.03.019-.057.035-.074.046-1.038-.241-2.108-.358-3.262-.358-.954,0-1.949.08-3.042.246-5.43.826-10.819,2.749-16.016,5.72-4.467,2.553-7.682,6.576-9.557,11.956-1.033,2.963-.999,5.953-.857,9.275l.034.787c.115,2.531.221,4.921-.22,7.311-.257,1.388.544,2.628,1.905,2.948.184.043.372.065.56.065,1.168,0,2.19-.842,2.431-2.003.158-.76.335-1.62.342-2.505.02-2.607-.003-5.169-.062-7.613-.068-2.788-.022-5.736,1.311-8.418,1.573-3.161,3.186-5.176,5.232-6.535,4.655-3.09,9.927-5.114,15.671-6.014.898-.141,1.634-.207,2.315-.207,1.124,0,2.099.187,2.982.571.289.126.591.189.9.189.717,0,1.4-.34,1.921-.954l.109-.131c.044-.055.086-.115.059-.115-.001,0-.001,0-.003,0l.667-.302c.729-.335,1.418-.65,2.112-.818.208-.05.408-.076.594-.076.616,0,1.12.278,1.587.876,3.177,4.064,4.837,8.829,5.044,14.507-.569-.697-1.094-1.528-1.602-2.53-.474-.938-1.326-1.497-2.276-1.497-.385,0-.764.09-1.128.269-1.298.638-1.758,2.091-1.091,3.455,1.542,3.149,3.551,5.38,6.128,6.797.298.164.501.459.523.798.082,1.219.101,2.38-.224,3.475-.126.426-.372.861-.643,1.283-.16-.162-.31-.337-.458-.509-.509-.595-1.234-.937-1.987-.937-.516,0-1.009.16-1.431.461-.56.402-.938,1.016-1.036,1.685-.096.656.074,1.308.482,1.839.556.724,1.07,1.253,1.617,1.665.884.668,1.885,1.021,2.896,1.021,1.203,0,2.352-.486,3.319-1.406,1.27-1.204,2.038-2.822,2.349-4.942.056-.376.094-.755.125-1.14,1.133.444,2.264.661,3.424.661,3.206-.001,6.128-1.236,8.686-3.67,2.172-2.068,3.34-4.272,3.568-6.738.207-2.255-.613-4.196-2.374-5.614Z" fill="#7a82a0"/>
        <path d="M335.506,204.388c-.09,0-.181.006-.272.017-.616.076-1.335.195-1.982.511-.992.484-1.953.72-2.935.72-.221,0-.444-.012-.669-.037-1.728-.192-3.453-.416-5.185-.641l-.884-.114c.066-.186.133-.374.197-.562,1.025-3.025,1.27-5.735.75-8.283-.258-1.266-1.273-2.151-2.471-2.151-.167,0-.335.018-.5.052-1.396.291-2.223,1.585-1.969,3.076.107.63.16,1.138.168,1.597.035,2.062-.665,4.007-1.517,6.153l-.684,1.703c-.717,1.775-1.46,3.611-2.069,5.475-.4,1.226-.497,2.503-.592,3.737l-.038.482c-.052.654.156,1.278.589,1.757.454.504,1.122.802,1.832.817h.059c1.332,0,2.365-.939,2.512-2.286.021-.188.025-.378.027-.569,0-.1.001-.201.008-.3.151-2.098.938-4.064,1.746-5.967.178.074.366.14.568.188.258.061.51.087.75.098.331,2.608.785,4.682,1.449,6.626.382,1.118,1.302,1.812,2.401,1.812.267,0,.536-.042.801-.126,1.337-.424,1.999-1.791,1.573-3.249l-.048-.168c-.238-.815-.484-1.658-.664-2.482-.125-.572-.227-1.15-.327-1.748.742.087,1.415.129,2.056.129,1.102,0,2.118-.126,3.078-.383-.044.413-.092.826-.147,1.237-.066.501-.145,1.001-.223,1.5-.134.861-.268,1.722-.35,2.588-.066.688.142,1.345.587,1.852.457.519,1.129.829,1.923.854h.001c1.312,0,2.361-1.003,2.49-2.387l.034-.399c.025-.324.051-.647.099-.965.079-.518.167-1.033.254-1.549.142-.837.283-1.674.392-2.516.195-1.508.01-2.986-.549-4.39-.419-1.053-1.288-1.707-2.267-1.707Z" fill="#7a82a0"/>
        <path d="M346.629,205.856l.182-2.298-.069-1.028c-.047-.742-.092-1.468-.189-2.187-.108-.819-.327-1.592-.542-2.313-.344-1.158-1.293-1.905-2.419-1.905-.279,0-.559.048-.832.141-1.268.433-1.901,1.715-1.574,3.188l.115.505c.202.882.392,1.716.372,2.499-.049,1.969-.188,3.979-.322,5.924-.053.773-.107,1.546-.155,2.32-.151,2.461.072,4.609.68,6.569.346,1.115,1.322,1.863,2.426,1.863.233,0,.466-.033.693-.099.651-.188,1.182-.61,1.5-1.189.331-.605.398-1.326.191-2.029-.44-1.488-.592-3.029-.466-4.712.13-1.754.27-3.507.409-5.249Z" fill="#7a82a0"/>
      </g>
    </g>
    <circle cx="339.999" cy="284.564" r="27.5" fill="#b4b4cc"/>
  </g>
</svg>