<?xml version="1.0" encoding="UTF-8"?>
<svg id="_레이어_2" data-name="레이어_2" xmlns="http://www.w3.org/2000/svg" width="400" height="400" viewBox="0 0 400 400">
  <g id="_레이어_1-2" data-name="레이어_1">
    <path d="M0,0v400h400V0H0ZM255.095,357c0,2.209-1.791,4-4,4h-102.191c-2.209,0-4-1.791-4-4V45c0-2.209,1.791-4,4-4h102.191c2.209,0,4,1.791,4,4v312Z" fill="#008dd7"/>
    <g>
      <g>
        <path d="M288.414,146.314c11.119-4.256,19.372-7.704,41.542-7.704,21.936,0,30.436,3.455,41.567,7.714,4.333,1.658,7.301,5.679,7.564,10.31.274,4.822.508,11.431.671,18.949.519-21.226.138-46.752-.553-60.791-.291-5.916-4.025-11.091-9.536-13.264-10.275-4.052-19.01-8.243-39.714-8.243-20.946,0-29.469,4.193-39.723,8.246-5.504,2.175-9.239,7.339-9.525,13.251-.663,13.688-.938,38.297-.487,59.2.143-6.854.349-12.873.604-17.35.264-4.638,3.251-8.658,7.589-10.318Z" fill="#006bb6"/>
        <path d="M319.048,301.335c3.94,9.84,17.876,9.84,21.816,0,13.034-32.553,34.389-65.453,37.764-102.93.555-6.164.918-14.134,1.131-22.823-.162-7.516-.396-14.123-.67-18.944-.263-4.628-3.221-8.654-7.55-10.309-11.139-4.26-19.636-7.719-41.582-7.719-22.197,0-30.443,3.459-41.582,7.719-4.33,1.656-7.287,5.682-7.55,10.309-.254,4.477-.461,10.493-.604,17.343.201,9.305.544,17.88,1.064,24.424,2.974,37.476,24.729,70.376,37.764,102.93Z" fill="#222226"/>
      </g>
      <circle cx="329.998" cy="188.5" r="25" fill="#b4b4cc"/>
      <g>
        <path d="M314.007,105.864c1.44.505,2.711,1.303,3.812,2.393,1.101,1.091,2.001,2.429,2.701,4.014.699,1.585,1.176,3.344,1.43,5.278.25,1.909.241,3.719-.025,5.431-.268,1.712-.792,3.243-1.573,4.593s-1.807,2.469-3.077,3.354c-1.271.885-2.786,1.443-4.546,1.674-1.735.228-3.323.089-4.764-.416s-2.704-1.303-3.793-2.396c-1.089-1.092-1.99-2.437-2.704-4.033-.714-1.595-1.198-3.373-1.455-5.331-.25-1.908-.236-3.719.044-5.433.279-1.713.811-3.239,1.593-4.577.783-1.337,1.811-2.443,3.083-3.316,1.271-.873,2.775-1.423,4.511-1.65s3.323-.089,4.764.416ZM307.479,111.031c-.638.525-1.152,1.21-1.546,2.056-.394.846-.648,1.832-.766,2.956-.117,1.125-.092,2.332.077,3.621.176,1.338.467,2.548.873,3.63.407,1.081.91,1.986,1.51,2.714.6.729,1.288,1.268,2.065,1.62s1.612.469,2.505.352c.893-.117,1.662-.445,2.311-.983.647-.539,1.161-1.243,1.538-2.112.378-.869.626-1.866.743-2.991.117-1.125.091-2.332-.078-3.621-.172-1.313-.461-2.505-.865-3.574-.405-1.068-.907-1.961-1.505-2.677-.599-.716-1.286-1.25-2.063-1.602-.777-.352-1.612-.47-2.505-.353-.892.117-1.657.438-2.294.963Z" fill="#008dd7"/>
        <path d="M334.971,131.182l-5.137-.054.228-21.636-4.949-.052.051-4.837,10.087.106-.279,26.474Z" fill="#008dd7"/>
        <path d="M344.13,131.602l9.416-9.907c-.748.414-1.461.681-2.138.802-.678.121-1.485.108-2.424-.04-1.136-.179-2.156-.529-3.062-1.051-.904-.522-1.653-1.19-2.247-2.005-.593-.814-1.008-1.759-1.243-2.834-.236-1.074-.257-2.229-.062-3.464.21-1.333.646-2.504,1.312-3.514.664-1.009,1.497-1.839,2.498-2.492s2.122-1.103,3.363-1.35,2.528-.267,3.862-.057c1.531.241,2.886.676,4.065,1.304,1.179.628,2.153,1.396,2.922,2.3.769.906,1.315,1.934,1.641,3.086.324,1.152.382,2.395.173,3.729-.102.642-.275,1.266-.522,1.873-.248.606-.565,1.215-.952,1.824-.387.61-.839,1.235-1.357,1.875-.518.64-1.099,1.314-1.741,2.022l-7.984,8.766-5.52-.869ZM356.897,113.301c-.149-.58-.408-1.108-.776-1.583-.368-.475-.824-.875-1.367-1.202s-1.161-.543-1.853-.652-1.346-.091-1.963.052c-.617.144-1.161.387-1.633.73-.472.344-.861.77-1.169,1.278-.309.509-.513,1.084-.613,1.726-.098.618-.077,1.216.06,1.793.137.579.384,1.099.741,1.56s.809.854,1.352,1.181,1.173.545,1.89.658c.716.113,1.377.097,1.981-.049.605-.145,1.149-.389,1.634-.73.483-.342.879-.76,1.185-1.256s.507-1.053.604-1.67c.101-.642.076-1.253-.072-1.833Z" fill="#008dd7"/>
      </g>
      <rect x="324.998" y="168.5" width="10" height="40" rx="5" ry="5" fill="#7a82a0"/>
    </g>
  </g>
</svg>