<?xml version="1.0" encoding="UTF-8"?>
<svg id="_레이어_2" data-name="레이어_2" xmlns="http://www.w3.org/2000/svg" width="400" height="400" viewBox="0 0 400 400">
  <g id="_레이어_1-2" data-name="레이어_1">
    <rect x="20" y="20" width="360" height="360" rx="8" ry="8" fill="#222226"/>
    <path d="M372,10c9.925,0,18,8.075,18,18v344c0,9.925-8.075,18-18,18H28c-9.925,0-18-8.075-18-18V28c0-9.925,8.075-18,18-18h344M372,0H28C12.536,0,0,12.536,0,28v344c0,15.464,12.536,28,28,28h344c15.464,0,28-12.536,28-28V28c0-15.464-12.536-28-28-28h0Z" fill="#b4b4cc"/>
    <g>
      <circle cx="329.999" cy="200" r="30" fill="#b4b4cc"/>
      <rect x="324.999" y="180" width="10" height="40" rx="5" ry="5" fill="#7a82a0"/>
    </g>
  </g>
</svg>