<?xml version="1.0" encoding="UTF-8"?>
<svg id="_레이어_2" data-name="레이어_2" xmlns="http://www.w3.org/2000/svg" width="400" height="400" viewBox="0 0 400 400">
  <g id="_레이어_1-2" data-name="레이어_1">
    <rect width="400" height="400" rx="8" ry="8" fill="#e9e6eb"/>
    <circle cx="344.999" cy="200" r="27.5" fill="#b4b4cc"/>
    <g>
      <path d="M46.111,63.323c2.72,0,5.02-.439,6.9-1.319,2.199-1.08,3.3-2.641,3.3-4.681,0-2.239-.98-3.859-2.94-4.859-1.521-.76-3.54-1.141-6.06-1.141-4.521,0-8.061,1.001-10.62,3-1.439,1.08-2.961,1.2-4.56.36-1.601-.879-2.32-2.22-2.16-4.02l1.2-17.04c.079-1.08.519-2,1.319-2.76.8-.76,1.74-1.141,2.82-1.141h24c1.16,0,2.16.4,3,1.2.8.84,1.2,1.841,1.2,3s-.4,2.16-1.2,3c-.84.801-1.84,1.2-3,1.2h-20.04l-.42,6c2.72-.8,5.54-1.2,8.46-1.2,5.28,0,9.5,1.3,12.66,3.899,3.159,2.641,4.74,6.141,4.74,10.5,0,4.32-1.701,7.801-5.101,10.44-3.44,2.64-7.94,3.96-13.5,3.96-3.08,0-6.08-.439-9-1.32-3.479-1.08-6.261-2.64-8.34-4.68-.801-.8-1.221-1.779-1.26-2.94,0-1.159.399-2.159,1.2-3,.84-.84,1.819-1.26,2.939-1.26,1.16,0,2.16.4,3,1.2,2.439,2.4,6.26,3.6,11.46,3.6Z" fill="#222226"/>
      <path d="M87.512,71.724c-5.121,0-9.48-1.699-13.08-5.1-4.08-3.88-6.12-9.181-6.12-15.9,0-6.76,2.04-12.06,6.12-15.899,3.6-3.399,7.959-5.101,13.08-5.101s9.48,1.701,13.08,5.101c4.08,3.84,6.12,9.14,6.12,15.899,0,6.72-2.04,12.021-6.12,15.9-3.6,3.4-7.96,5.1-13.08,5.1ZM87.512,38.124c-2.88,0-5.301.94-7.26,2.82-2.361,2.24-3.54,5.5-3.54,9.779s1.179,7.54,3.54,9.78c1.959,1.88,4.38,2.819,7.26,2.819s5.3-.939,7.26-2.819c2.36-2.24,3.54-5.5,3.54-9.78s-1.18-7.539-3.54-9.779c-1.96-1.88-4.38-2.82-7.26-2.82Z" fill="#222226"/>
    </g>
    <path d="M151.665,325.299c0-2.352,1.104-3.936,3.312-4.752,2.208-.768,4.056-.288,5.545,1.439l25.703,30.023v-26.711c0-1.392.479-2.567,1.44-3.528,1.008-1.008,2.207-1.512,3.6-1.512s2.593.504,3.601,1.512c.959.961,1.439,2.137,1.439,3.528v40.319c0,2.353-1.104,3.937-3.312,4.752-.529.192-1.104.288-1.729.288-1.536,0-2.808-.6-3.815-1.8l-25.704-29.952v26.712c0,1.393-.48,2.568-1.44,3.528-1.008,1.008-2.208,1.512-3.6,1.512s-2.592-.504-3.6-1.512c-.961-.96-1.44-2.136-1.44-3.528v-40.319Z" fill="#222226"/>
    <g>
      <path d="M230.836,270.423c-9.136,12.431-23.856,21.233-38.417,22.974-6.95.831-13.678,1.253-19.995,1.253-17.812,0-33.845-3.269-49.016-9.992-10.081-4.469-17.838-12.43-22.432-23.024-4.19-9.662-5.354-20.608-3.28-30.821,3.237-15.942,11.17-26.717,24.252-32.94,5.987-2.849,4.688-7.541,3.74-10.968-6.722-24.288-6.755-44.417-.103-63.346,1.578-4.49,4.335-8.655,8.431-12.733,3.359-3.345,7.389-5.187,11.346-5.187,5.194,0,9.889,3.099,12.879,8.501,7.556,13.652,8.337,29.097,8.056,43.753v.292c-.018,3.136-.047,8.974-.857,14.759-.044.315-.096.638-.146.965-.373,2.357-.836,5.292.929,7.492,1.174,1.463,3.032,2.254,5.684,2.419,2.25.141,3.952.24,5.353.24,2.26,0,4.788-.18,6.189-2.332,1.045-1.604,1.121-3.823,1.119-7.027-.009-13.271.477-27.42,4.061-40.978,2.058-7.782,4.749-13.727,8.472-18.707,3.971-5.312,8.793-8.005,14.33-8.005.991,0,2.022.086,3.063.257,6.413,1.052,8.837,5.669,10.503,12.277,3.611,14.32,1.224,28.146-1.589,39.78l-.744,3.107c-2.104,8.817-4.278,17.935-8.344,26.235-2.963,6.048,1.728,9.12,4.529,10.955.551.361,1.096.717,1.592,1.086,10.59,7.889,16.914,18.038,19.336,31.031,3.258,17.485-3.062,30.688-8.939,38.684Z" fill="#fff"/>
      <g>
        <path d="M230.46,200.143c-3.51-3.246-8.039-6.802-8.662-9.364-.62-2.547,2.351-6.684,4.124-11.59,6.795-18.806,10.554-38.254,7.34-58.408-1.443-9.047-5.087-16.849-14.684-19.694-9.27-2.748-17.513-.47-24.467,6.377-10.781,10.617-13.046,24.634-15.516,38.575-1.611,9.096-1.515,18.292-1.548,27.48-.006,1.507.134,3.401-2.06,3.322-2.35-.084-1.679-1.897-1.587-3.427.29-4.804.639-9.617.622-14.425-.056-15.97-.654-31.857-8.041-46.59-6.246-12.458-18.409-18.437-30.786-12.456-14.513,7.013-18.974,21.781-21.114,36.473-2.48,17.024-.85,33.902,2.944,50.585.59,2.594.903,4.038-1.977,5.714-23.726,13.81-30.315,41.511-23.516,66.209,2.926,10.628,8.957,18.931,16.964,25.557,21.979,17.992,67.431,21.671,94.616,14.413,23.223-6.2,35.043-24.083,38.632-29.749,13.447-21.234,7.359-51.761-11.282-69.003ZM230.836,270.423c-9.136,12.431-23.856,21.233-38.417,22.974-6.95.831-13.678,1.253-19.995,1.253-17.812,0-33.845-3.269-49.016-9.992-10.081-4.469-17.838-12.43-22.432-23.024-4.19-9.662-5.354-20.608-3.28-30.821,3.237-15.942,11.17-26.717,24.252-32.94,5.987-2.849,4.688-7.541,3.74-10.968-6.722-24.288-6.755-44.417-.103-63.346,1.578-4.49,4.335-8.655,8.431-12.733,3.359-3.345,7.389-5.187,11.346-5.187,5.194,0,9.889,3.099,12.879,8.501,7.556,13.652,8.337,29.097,8.056,43.753v.292c-.018,3.136-.047,8.974-.857,14.759-.044.315-.096.638-.146.965-.373,2.357-.836,5.292.929,7.492,1.174,1.463,3.032,2.254,5.684,2.419,2.25.141,3.952.24,5.353.24,2.26,0,4.788-.18,6.189-2.332,1.045-1.604,1.121-3.823,1.119-7.027-.009-13.271.477-27.42,4.061-40.978,2.058-7.782,4.749-13.727,8.472-18.707,3.971-5.312,8.793-8.005,14.33-8.005.991,0,2.022.086,3.063.257,6.413,1.052,8.837,5.669,10.503,12.277,3.611,14.32,1.224,28.146-1.589,39.78l-.744,3.107c-2.104,8.817-4.278,17.935-8.344,26.235-2.963,6.048,1.728,9.12,4.529,10.955.551.361,1.096.717,1.592,1.086,10.59,7.889,16.914,18.038,19.336,31.031,3.258,17.485-3.062,30.688-8.939,38.684Z" fill="#2d2d31"/>
        <path d="M180.757,278.426c-.584-.285-.83-.488-.93-.591.092-.117.334-.362.945-.744,1.036-.647,1.695-1.566,1.854-2.589.15-.968-.162-1.968-.881-2.815-.61-.721-1.459-1.102-2.454-1.102-.84,0-1.73.277-2.508.781-1.552,1.008-2.956,1.498-4.295,1.498-1.821,0-3.562-.938-5.323-2.869-1.089-1.191-2.369-1.848-3.604-1.848-.802,0-1.976.281-3.018,1.622-.665.854-.948,1.697-.842,2.506.169,1.295,1.233,2.104,2.173,2.817.256.194.51.387.735.585.211.186.419.375.668.604-.34.12-.698.223-1.052.325-1.258.361-2.559.736-3.155,1.897-.389.757-.383,1.676.02,2.809.617,1.736,2.003,2.693,3.901,2.693,1.384,0,2.81-.506,3.762-.931,1.427-.636,2.757-.944,4.067-.944,1.937,0,3.835.695,5.803,2.126.939.684,1.97,1.045,2.979,1.045h0c1.218,0,2.305-.514,3.143-1.485.79-.916,1.103-1.814.927-2.671-.293-1.435-1.81-2.177-2.917-2.72Z" fill="#2d2d31"/>
        <path d="M206.177,249.278l-.25.004c-1.833.063-3.516.828-4.738,2.152-1.396,1.513-2.109,3.607-2.006,5.898.163,3.607,2.778,6.127,6.36,6.127.181,0,.363-.007.548-.02,3.9-.28,6.322-3.093,6.321-7.34-.003-4.018-2.566-6.822-6.235-6.822Z" fill="#2d2d31"/>
        <path d="M130.876,245.87c-.106-.003-.213-.005-.318-.005-2.122,0-3.898.667-5.137,1.929-.806.821-1.756,2.304-1.71,4.702.077,3.958,2.864,6.562,7.103,6.633h.128c2.028,0,5.541-.839,6.28-6.459l.023-.186-.01-.187c-.211-3.787-2.707-6.311-6.359-6.428Z" fill="#2d2d31"/>
      </g>
    </g>
    <rect x="339.999" y="180" width="10" height="40" rx="5" ry="5" fill="#7a82a0"/>
  </g>
</svg>