<?xml version="1.0" encoding="UTF-8"?>
<svg id="_레이어_2" data-name="레이어_2" xmlns="http://www.w3.org/2000/svg" width="400" height="400" viewBox="0 0 400 400">
  <g id="_레이어_1-2" data-name="레이어_1">
    <rect width="400" height="400" rx="8" ry="8" fill="#f5f4f3"/>
    <g>
      <path d="M389.999,219.326c0,23.223-16.807,43.114-39.736,46.794-4.086.656-7.679,1.067-10.264,1.067s-6.178-.411-10.264-1.067c-22.929-3.68-39.736-23.571-39.736-46.794v-84.513c0-1.105.895-2,2-2h96c1.105,0,2,.895,2,2v84.513Z" fill="#dedbe0"/>
      <circle cx="339.999" cy="223.368" r="30" fill="#b4b4cc"/>
      <rect x="334.999" y="203.368" width="10" height="40" rx="5" ry="5" fill="#7a82a0"/>
      <g>
        <path d="M317.445,178.369h-5.26v-26.082h-5.392v-4.91h10.651v30.992Z" fill="#7a82a0"/>
        <path d="M328.843,162.193l1.228-14.641h17.666l-.176,4.515h-13.282l-.701,7.584c.789-.292,1.556-.526,2.302-.701.744-.176,1.556-.264,2.432-.264,1.432,0,2.791.22,4.077.658,1.286.438,2.403,1.066,3.354,1.885.949.818,1.71,1.834,2.28,3.046.569,1.214.854,2.594.854,4.143,0,1.607-.277,3.062-.832,4.362-.556,1.3-1.345,2.403-2.367,3.31-1.023.906-2.243,1.607-3.66,2.104-1.418.497-2.988.745-4.713.745-2.338,0-4.332-.395-5.983-1.184s-3.208-1.869-4.669-3.243l3.068-3.507c1.141,1.052,2.324,1.87,3.551,2.454,1.229.585,2.558.877,3.99.877,1.986,0,3.543-.533,4.668-1.6s1.688-2.462,1.688-4.187c0-.818-.168-1.57-.504-2.258-.336-.687-.805-1.278-1.402-1.775-.6-.496-1.309-.876-2.127-1.14-.818-.263-1.709-.395-2.674-.395-.818,0-1.593.096-2.323.285-.73.19-1.446.446-2.147.768l-3.595-1.842Z" fill="#7a82a0"/>
        <path d="M365.577,159.345c1.315.087,2.527.351,3.638.789,1.111.438,2.083,1.052,2.916,1.841.832.789,1.482,1.725,1.95,2.806s.702,2.338.702,3.77c0,1.49-.279,2.871-.834,4.143s-1.314,2.367-2.279,3.287c-.964.921-2.125,1.645-3.484,2.17-1.359.526-2.857.789-4.493.789-2.659,0-4.954-.62-6.882-1.862-1.93-1.242-3.405-2.872-4.428-4.888l3.988-3.025c.789,1.666,1.769,2.938,2.938,3.814,1.168.876,2.586,1.314,4.252,1.314.877,0,1.673-.131,2.389-.395.717-.263,1.344-.643,1.885-1.14.541-.496.957-1.088,1.25-1.775.291-.687.438-1.469.438-2.345,0-.993-.175-1.849-.526-2.564-.351-.716-.826-1.3-1.424-1.754-.6-.452-1.323-.781-2.17-.986-.849-.204-1.77-.307-2.762-.307h-.789c-.293,0-.586.008-.877.022-.293.015-.585.036-.877.065-.293.029-.556.059-.789.088l-.701-2.762,8.548-8.768h-12.888v-4.515h19.463v4.208l-8.153,7.979Z" fill="#7a82a0"/>
      </g>
    </g>
  </g>
</svg>