<?xml version="1.0" encoding="UTF-8"?>
<svg id="_레이어_2" data-name="레이어_2" xmlns="http://www.w3.org/2000/svg" width="400" height="400" viewBox="0 0 400 400">
  <g id="_레이어_1-2" data-name="레이어_1">
    <rect y="0" width="400" height="400" rx="8" ry="8" fill="#dedbe0"/>
    <circle cx="337.298" cy="200.473" r="30" fill="#b4b4cc"/>
    <g>
      <g>
        <path d="M31.315,42.478c3.6-4.991,8.735-7.488,15.408-7.488,4.752,0,8.663,1.236,11.735,3.708,2.559,2.061,4.336,4.812,5.33,8.255.327,1.134-.463,2.291-1.631,2.462l-4.013.589c-.951.14-1.854-.434-2.165-1.343-.664-1.94-1.577-3.425-2.74-4.455-1.465-1.296-3.517-1.944-6.156-1.944-4.368,0-7.523,1.668-9.468,5.004-1.944,3.337-2.94,8.292-2.988,14.868l.145.072c1.296-2.063,3.083-3.683,5.364-4.86,2.279-1.176,4.835-1.764,7.668-1.764,3.6,0,6.647.697,9.144,2.088,2.495,1.393,4.356,3.312,5.58,5.76,1.224,2.447,1.836,5.232,1.836,8.352,0,3.553-.78,6.637-2.34,9.252-1.561,2.617-3.721,4.608-6.48,5.976-2.761,1.368-5.916,2.053-9.468,2.053-6.336,0-11.28-2.184-14.832-6.553-3.553-4.367-5.328-10.847-5.328-19.439,0-8.736,1.8-15.599,5.4-20.592ZM39.235,79.27c1.631,1.728,3.911,2.592,6.84,2.592,2.783,0,5.063-.804,6.84-2.412,1.775-1.607,2.664-4.068,2.664-7.38,0-3.071-.804-5.375-2.412-6.912-1.608-1.535-3.876-2.304-6.804-2.304-3.072,0-5.436.816-7.092,2.447-1.656,1.633-2.484,3.937-2.484,6.912s.815,5.328,2.448,7.057Z" fill="none" stroke="#222226"/>
        <path d="M89.564,62.998c2.495-2.351,4.235-4.511,5.22-6.48.983-1.967,1.476-4.295,1.476-6.984,0-2.399-.732-4.235-2.195-5.508-1.465-1.271-3.541-1.908-6.229-1.908-3.36,0-5.904.913-7.632,2.736-1.393,1.471-2.115,3.345-2.167,5.625-.023.99-.712,1.837-1.691,1.981l-4.422.654c-1.203.178-2.259-.76-2.278-1.975-.036-2.373.447-4.636,1.45-6.788,1.32-2.832,3.456-5.1,6.408-6.804,2.952-1.704,6.54-2.556,10.765-2.556,3.743,0,6.876.673,9.396,2.016,2.52,1.344,4.403,3.157,5.652,5.436,1.247,2.28,1.872,4.836,1.872,7.668,0,2.352-.433,4.548-1.297,6.588-.863,2.041-1.992,3.9-3.384,5.58-1.393,1.681-3.072,3.456-5.04,5.328-3.752,3.558-10.308,9.573-12.943,11.986-.406.372-.141,1.047.41,1.047h20.414c1.095,0,1.983.888,1.983,1.983v3.593c0,1.095-.888,1.983-1.983,1.983h-32.177c-1.095,0-1.983-.888-1.983-1.983v-3.542c0-.561.237-1.095.653-1.471,3.855-3.478,10.43-9.545,19.723-18.204Z" fill="none" stroke="#222226"/>
        <path d="M135.391,80.278c1.703-1.199,2.557-3.287,2.557-6.264,0-2.64-.732-4.691-2.196-6.156-1.465-1.464-3.732-2.196-6.804-2.196s-5.341.732-6.805,2.196-2.195,3.517-2.195,6.156c0,2.977.852,5.064,2.556,6.264,1.703,1.2,3.852,1.8,6.444,1.8s4.739-.6,6.443-1.8ZM133.314,54.872c1.415-1.152,3.265-3.202,3.265-5.842,0-2.592-.709-4.452-2.124-5.58-1.417-1.127-3.253-1.692-5.508-1.692s-4.093.564-5.509,1.692c-1.416,1.128-2.124,2.988-2.124,5.58,0,2.64.708,4.536,2.124,5.688s2.111,1.882,4.367,1.882,4.091-.576,5.508-1.728Z" fill="none" stroke="#222226"/>
      </g>
      <g>
        <path d="M31.315,42.478c3.6-4.991,8.735-7.488,15.408-7.488,4.752,0,8.663,1.236,11.735,3.708,2.559,2.061,4.336,4.812,5.33,8.255.327,1.134-.463,2.291-1.631,2.462l-4.013.589c-.951.14-1.854-.434-2.165-1.343-.664-1.94-1.577-3.425-2.74-4.455-1.465-1.296-3.517-1.944-6.156-1.944-4.368,0-7.523,1.668-9.468,5.004-1.944,3.337-2.94,8.292-2.988,14.868l.145.072c1.296-2.063,3.083-3.683,5.364-4.86,2.279-1.176,4.835-1.764,7.668-1.764,3.6,0,6.647.697,9.144,2.088,2.495,1.393,4.356,3.312,5.58,5.76,1.224,2.447,1.836,5.232,1.836,8.352,0,3.553-.78,6.637-2.34,9.252-1.561,2.617-3.721,4.608-6.48,5.976-2.761,1.368-5.916,2.053-9.468,2.053-6.336,0-11.28-2.184-14.832-6.553-3.553-4.367-5.328-10.847-5.328-19.439,0-8.736,1.8-15.599,5.4-20.592ZM39.235,79.27c1.631,1.728,3.911,2.592,6.84,2.592,2.783,0,5.063-.804,6.84-2.412,1.775-1.607,2.664-4.068,2.664-7.38,0-3.071-.804-5.375-2.412-6.912-1.608-1.535-3.876-2.304-6.804-2.304-3.072,0-5.436.816-7.092,2.447-1.656,1.633-2.484,3.937-2.484,6.912s.815,5.328,2.448,7.057Z" fill="none" stroke="#b4b4cc" stroke-miterlimit="10" stroke-width="2"/>
        <path d="M89.564,62.998c2.495-2.351,4.235-4.511,5.22-6.48.983-1.967,1.476-4.295,1.476-6.984,0-2.399-.732-4.235-2.195-5.508-1.465-1.271-3.541-1.908-6.229-1.908-3.36,0-5.904.913-7.632,2.736-1.393,1.471-2.115,3.345-2.167,5.625-.023.99-.712,1.837-1.691,1.981l-4.422.654c-1.203.178-2.259-.76-2.278-1.975-.036-2.373.447-4.636,1.45-6.788,1.32-2.832,3.456-5.1,6.408-6.804,2.952-1.704,6.54-2.556,10.765-2.556,3.743,0,6.876.673,9.396,2.016,2.52,1.344,4.403,3.157,5.652,5.436,1.247,2.28,1.872,4.836,1.872,7.668,0,2.352-.433,4.548-1.297,6.588-.863,2.041-1.992,3.9-3.384,5.58-1.393,1.681-3.072,3.456-5.04,5.328-3.752,3.558-10.308,9.573-12.943,11.986-.406.372-.141,1.047.41,1.047h20.414c1.095,0,1.983.888,1.983,1.983v3.593c0,1.095-.888,1.983-1.983,1.983h-32.177c-1.095,0-1.983-.888-1.983-1.983v-3.542c0-.561.237-1.095.653-1.471,3.855-3.478,10.43-9.545,19.723-18.204Z" fill="none" stroke="#b4b4cc" stroke-miterlimit="10" stroke-width="2"/>
        <path d="M135.391,80.278c1.703-1.199,2.557-3.287,2.557-6.264,0-2.64-.732-4.691-2.196-6.156-1.465-1.464-3.732-2.196-6.804-2.196s-5.341.732-6.805,2.196-2.195,3.517-2.195,6.156c0,2.977.852,5.064,2.556,6.264,1.703,1.2,3.852,1.8,6.444,1.8s4.739-.6,6.443-1.8ZM133.314,54.872c1.415-1.152,3.265-3.202,3.265-5.842,0-2.592-.709-4.452-2.124-5.58-1.417-1.127-3.253-1.692-5.508-1.692s-4.093.564-5.509,1.692c-1.416,1.128-2.124,2.988-2.124,5.58,0,2.64.708,4.536,2.124,5.688s2.111,1.882,4.367,1.882,4.091-.576,5.508-1.728Z" fill="none" stroke="#b4b4cc" stroke-miterlimit="10" stroke-width="2"/>
      </g>
    </g>
    <path d="M136.946,61.036c2.776.901,5.077,2.444,6.904,4.626,1.968,2.353,2.952,5.328,2.952,8.928,0,2.641-.576,5.04-1.728,7.2-1.152,2.16-3.061,3.913-5.725,5.256-2.664,1.344-6.132,2.017-10.403,2.017s-7.74-.673-10.404-2.017c-2.664-1.343-4.572-3.096-5.724-5.256-1.152-2.16-1.729-4.56-1.729-7.2,0-3.6.983-6.575,2.952-8.928,0,0,.421-.912,2.179-2.348,3.323-2.714,10.992-6.059,14.338-6.976" fill="none" stroke="#b4b4cc" stroke-width="2"/>
    <path d="M120.778,60.419c-2.187-.803-4.061-2.091-5.619-3.865-1.753-1.991-2.628-4.475-2.628-7.452,0-2.783.671-5.244,2.016-7.38,1.343-2.135,3.264-3.791,5.76-4.968,2.495-1.176,5.375-1.764,8.641-1.764s6.144.588,8.64,1.764c2.495,1.177,4.416,2.833,5.76,4.968,1.344,2.136,2.017,4.597,2.017,7.38,0,2.977-.877,5.461-2.629,7.452-1.752,1.993-3.342,3.443-5.788,4.482-2.038.866-9.102,2.923-13.551,5.859" fill="none" stroke="#b4b4cc" stroke-width="2"/>
    <line x1="82.934" y1="80.638" x2="69.841" y2="80.638" fill="none" stroke="#b4b4cc" stroke-width="2"/>
    <path d="M34.657,60.586s-.229,4.708.411,8.979c.716,4.78,2.617,7.36,2.617,7.36" fill="none" stroke="#b4b4cc" stroke-width="2"/>
    <rect x="332.298" y="180.473" width="10" height="40" rx="5" ry="5" fill="#7a82a0"/>
  </g>
</svg>