<?xml version="1.0" encoding="UTF-8"?>
<svg xmlns="http://www.w3.org/2000/svg" version="1.1" viewBox="0 0 612 792">
  <defs>
    <style>
      .cls-1 {
        fill: none;
        stroke: #fff;
        stroke-miterlimit: 10;
      }
    </style>
  </defs>
  <!-- Generator: Adobe Illustrator 28.7.0, SVG Export Plug-In . SVG Version: 1.2.0 Build 136)  -->
  <g>
    <g id="_레이어_1" data-name="레이어_1">
      <g>
        <polygon class="cls-1" points="382.4 75.7 382.4 57.1 326.7 57.1 345.3 75.7 382.4 75.7"/>
        <polygon class="cls-1" points="232.2 171.5 250.8 171.5 250.8 153 232.2 153 213.7 171.5 213.7 190.1 232.2 190.1 232.2 171.5"/>
        <polygon class="cls-1" points="575.5 112.7 575.5 94.2 557 94.2 557 57.1 519.9 57.1 501.3 75.7 403.3 75.7 403.3 94.2 363.8 94.2 363.8 112.8 345.3 112.8 326.7 131.3 326.7 227.1 363.8 227.1 363.8 245.7 345.3 245.7 345.3 264.6 363.8 264.8 363.8 285.7 345.3 285.7 345.3 304.7 326.7 304.9 326.7 323.8 288.8 324.4 269.3 343.4 269.3 285.7 288.1 285.7 288.4 264.2 308.1 264.2 308.1 245.6 269.3 245.6 269.3 208.6 250.8 227.1 232.2 227.1 232.2 208.6 213.7 208.6 213.7 227.1 195.1 245.6 195.1 324.2 176.7 342.8 176.7 379.7 158.1 398.3 158.1 416.8 139.6 416.8 139.6 435.4 121 435.4 121 453.9 102.5 472.5 102.5 491 83.9 491 83.9 516.9 65.3 535.5 83.9 535.5 102.5 535.5 102.5 554 121 554 121 572.6 139.6 572.6 139.7 591.1 121 591.1 121 572.6 102.5 572.6 102.5 554 46.8 554 28.2 572.6 46.9 572.6 46.9 591.1 102.5 591.1 121.2 609.7 46.9 609.7 46.9 591.1 9.7 589.9 9.7 626.9 65.4 628.1 83.9 646.7 102.3 646.7 102.5 628.1 139.6 628.1 139.6 609.9 158.4 609.9 158.1 591.1 176.7 591.1 176.7 572.6 195.1 572.6 195.1 591.1 213.7 591.1 213.7 572.6 232.2 572.6 232.2 591.1 250.8 591.1 269.4 610.1 288.3 610.1 288.5 628.1 326.5 628.1 345.3 646.7 382.4 646.7 382.4 702.3 363.8 720.7 363.8 757.6 403.9 757.6 421.7 739 421.9 720.7 403 702.3 403.3 683.8 421.9 665.3 440.4 665.3 440.4 646.7 421.9 646.7 421.9 628.1 440.4 628.1 440.4 609.6 459 609.6 459 572.6 440.4 572.6 440.4 535.5 421.9 535.5 421.9 472.5 519.9 472.5 519.9 453.9 538.4 453.9 538.6 416.8 557 416.8 557 398.3 575.5 398.3 575.5 361.2 594.1 361.2 594.1 342.8 575.5 342.8 575.5 324.4 557 324.3 538.4 305.7 538.4 267 594.1 267 594.1 208.6 612.5 189 612.5 113.1 575.5 112.7"/>
        <polygon class="cls-1" points="326.7 75.7 289.6 75.7 289.6 94.2 308.1 94.2 326.7 75.7"/>
        <polygon class="cls-1" points="269.4 112.8 287.9 112.8 269.3 94.2 269.3 112.8 250.8 112.8 250.8 131.4 269.4 131.4 269.4 112.8"/>
        <rect class="cls-1" x="459" y="38.6" width="18.6" height="18.6"/>
        <polygon class="cls-1" points="440.4 38.6 403.3 38.6 403.3 57.1 421.9 57.1 440.4 38.6"/>
      </g>
    </g>
  </g>
</svg>