<?xml version="1.0" encoding="UTF-8"?>
<svg xmlns="http://www.w3.org/2000/svg" version="1.1" viewBox="0 0 612 792">
  <defs>
    <style>
      .cls-1 {
        fill-opacity: 0;
        stroke: #999;
        stroke-miterlimit: 10;
      }
    </style>
  </defs>
  <!-- Generator: Adobe Illustrator 28.7.0, SVG Export Plug-In . SVG Version: 1.2.0 Build 136)  -->
  <g>
    <g id="_레이어_1" data-name="레이어_1">
      <g id="_레이어_1-2" data-name="_레이어_1">
        <g>
          <polygon class="cls-1" points="377.3 75.7 377.3 57.1 321.6 57.1 340.2 75.7 377.3 75.7"/>
          <polygon class="cls-1" points="227.1 171.5 245.7 171.5 245.7 153 227.1 153 208.6 171.5 208.6 190.1 227.1 190.1 227.1 171.5"/>
          <polygon class="cls-1" points="570.4 112.7 570.4 94.2 551.9 94.2 551.9 57.1 514.8 57.1 496.2 75.7 398.2 75.7 398.2 94.2 358.7 94.2 358.7 112.8 340.2 112.8 321.6 131.3 321.6 227.1 358.7 227.1 358.7 245.7 340.2 245.7 340.2 264.6 358.7 264.8 358.7 285.7 340.2 285.7 340.2 304.7 321.6 304.9 321.6 323.8 283.7 324.4 264.2 343.4 264.2 285.7 283 285.7 283.3 264.2 303 264.2 303 245.6 264.2 245.6 264.2 208.6 245.7 227.1 227.1 227.1 227.1 208.6 208.6 208.6 208.6 227.1 190 245.6 190 324.2 171.6 342.8 171.6 379.7 153 398.3 153 416.8 134.5 416.8 134.5 435.4 115.9 435.4 115.9 453.9 97.4 472.5 97.4 491 78.8 491 78.8 516.9 60.2 535.5 78.8 535.5 97.4 535.5 97.4 554 115.9 554 115.9 572.6 134.5 572.6 134.6 591.1 115.9 591.1 115.9 572.6 97.4 572.6 97.4 554 41.7 554 23.1 572.6 41.8 572.6 41.8 591.1 97.4 591.1 116.1 609.7 41.8 609.7 41.8 591.1 4.6 589.9 4.6 626.9 60.3 628.1 78.8 646.7 97.2 646.7 97.4 628.1 134.5 628.1 134.5 609.9 153.3 609.9 153 591.1 171.6 591.1 171.6 572.6 190 572.6 190 591.1 208.6 591.1 208.6 572.6 227.1 572.6 227.1 591.1 245.7 591.1 264.3 610.1 283.2 610.1 283.4 628.1 321.4 628.1 340.2 646.7 377.3 646.7 377.3 702.3 358.7 720.7 358.7 757.6 398.8 757.6 416.6 739 416.8 720.7 397.9 702.3 398.2 683.8 416.8 665.3 435.3 665.3 435.3 646.7 416.8 646.7 416.8 628.1 435.3 628.1 435.3 609.6 453.9 609.6 453.9 572.6 435.3 572.6 435.3 535.5 416.8 535.5 416.8 472.5 514.8 472.5 514.8 453.9 533.3 453.9 533.5 416.8 551.9 416.8 551.9 398.3 570.4 398.3 570.4 361.2 589 361.2 589 342.8 570.4 342.8 570.4 324.4 551.9 324.3 533.3 305.7 533.3 267 589 267 589 208.6 607.4 189 607.4 113.1 570.4 112.7"/>
          <polygon class="cls-1" points="321.6 75.7 284.5 75.7 284.5 94.2 303 94.2 321.6 75.7"/>
          <polygon class="cls-1" points="264.3 112.8 282.8 112.8 264.2 94.2 264.2 112.8 245.7 112.8 245.7 131.4 264.3 131.4 264.3 112.8"/>
          <rect class="cls-1" x="453.9" y="38.6" width="18.6" height="18.6"/>
          <polygon class="cls-1" points="435.3 38.6 398.2 38.6 398.2 57.1 416.8 57.1 435.3 38.6"/>
        </g>
      </g>
    </g>
  </g>
</svg>