<?xml version="1.0" encoding="UTF-8"?>
<svg id="_레이어_2" data-name="레이어_2" xmlns="http://www.w3.org/2000/svg" width="407" height="267" xmlns:xlink="http://www.w3.org/1999/xlink" viewBox="0 0 407 267">
  <defs>
    <clipPath id="clippath">
      <rect width="400" height="260" rx="16" ry="16" fill="none"/>
    </clipPath>
  </defs>
  <g id="_레이어_1-2" data-name="레이어_1">
    <path d="M391,0H16C7.2,0,0,7.2,0,16v235c0,8.8,7.2,16,16,16h367c13.2,0,24-10.8,24-24V16c0-8.8-7.2-16-16-16Z" fill="#dedbe0"/>
    <g clip-path="url(#clippath)">
      <g>
        <path d="M499.7,148.056v130.099c-26.034-13.723-47.075-4.745-56.055,23.103-13.43.969-24.13-.909-35.725-7.739-5.945-9.185-15.351-15.181-22.284-23.499,14.658-7.195,22.765-23.092,21.169-39.219,40.098,38.079,92.007-18.569,47.307-53.743l.004.009c10.049-5.897,16.818-14.549,21.082-25.256.607-1.524,1.296-2.839,2.732-3.677,7.262,1.311,14.521,1.817,21.771-.078Z" fill="#1144ba"/>
        <path d="M-105.947,57.578V-5.698c1.307.02,2.092,1.01,2.997,1.702,14.369,12.039,35.475,7.274,46.08-7.31,12.357,5.512,25.946,1.59,37.488-3.784C-6.069-9.944.589,4.459.739,18.135c-1.688,18.456-17.517,35.162-36.798,33.334-7.415-.418-13.92-3.074-20.12-6.828-.789-.478-1.828-1.143-2.212-.033-6.607,14.534-24.744,19.896-39.477,16.242-2.899-.693-5.098-2.91-8.078-3.272Z" fill="#af2b8b"/>
        <path d="M454.463,177.503c44.323,35.028-8.05,91.283-47.659,53.299-2.45-6.578-4.305-13.398-7.9-19.513,13.634-8.692,18.334-16.532,20.473-32.358,11.577-1.026,23.223.12,34.737-1.863,0,0-.004-.009-.004-.009-.059.288.038.453.353.445Z" fill="#f23717"/>
        <path d="M454.115,177.067c-11.515,1.983-23.16.838-34.737,1.862-1.745-11.36-7.258-22.361-17.394-28.38,13.629-7.692,22.26-21.451,24.076-36.869,12.219,8.953,25.662,11.082,39.226,3.906.087,1.387,1.107,2.26,1.863,3.251,5.634,7.384,9.682,15.362,9.539,24.951-.015.994-.014,2.009,1.24,2.346-1.436.837-2.125,2.153-2.732,3.677-4.264,10.707-11.034,19.359-21.082,25.256Z" fill="#af2b8b"/>
        <path d="M385.636,270.021c-5.882,1.628-11.963,1.935-17.973,2.712-3.84-19.183-16.934-30.672-36.358-32.596,12.275-7.993,23.994-20.218,22.016-35.93,12.233,7.354,24.212,13.201,38.833,8.136,2.111-.656,4.306-2.026,6.751-1.055,3.595,6.115,5.45,12.935,7.9,19.513,1.595,16.129-6.511,32.024-21.169,39.219Z" fill="#0eac84"/>
        <path d="M-51.837,100.786c6.108-18.404-.311-34.301-16.97-44.119,3.959-3.593,8.535-6.619,10.415-12.059.384-1.11,1.423-.445,2.212.033,11.327,7.427,26.352,9.335,38.627,3.024-.015,31.061,34.043,47.131,60.078,32.252,22.767,17.713,16.195,57.487-12.867,64.142-10.782,1.074-21.08-.536-30.764-5.551-.534-13.054-7.328-27.14-20.977-30.469-10.125.264-21.924.057-29.754-7.253Z" fill="#1144ba"/>
        <path d="M42.524,79.917c-26.044,14.886-60.097-1.206-60.078-32.252C-7.419,41.05-.445,30.28.739,18.133c11.061-5.462,23.517-3.388,35.176-1.349.949,1.244,2.464,1.584,3.763,2.171,5.29,2.389,9.072,6.176,12.05,11.172,10.466,17.79,5.452,36.37-9.203,49.79Z" fill="#0eac84"/>
        <path d="M-19.382-15.09c8.314-7.91,12.535-11.901,15.942-23.193,14.024,11.685,34.691,14.416,49.92,3.233,1.375,5.17,5.086,9.175,7.863,13.65C42.689-10.215,37.864,1.012,35.914,16.784c-11.658-2.039-24.115-4.113-35.176,1.349C.588,4.464-6.068-9.95-19.382-15.09Z" fill="#1144ba"/>
        <path d="M-55.242,235.372c-3.265-7.692-7.145-15.158-13.127-21.066,14.671-10.791,19.881-31.13,11.419-47.339,10.941,6.869,21.932,8.145,33.797,2.877C-8.756,176.003.123,190.094-.161,206.101c-.058,2.24.783,2.473,2.643,1.962,6.31-1.735,12.666-1.2,19.019-.226,3.546,15.981,11.659,30.194,28.84,34.247,1.665,3.057-.06,5.949-.695,8.763-1.767,7.837-5.64,14.61-11.48,20.199-13.082-8.265-25.847-6.649-39.957-2.258-1.225-6.876-3.086-13.605-6.423-19.73-8.921-15.598-31.033-18.829-47.029-13.686Z" fill="#1144ba"/>
        <path d="M469.835,9.164c-6.663,5.309-12.829,11.324-16.747,19.027-1.76,6.731-.147,14.097-.582,21.056,0,0-.209.194-.209.194-.195-.05-.359-.002-.493.143-3.393.912-6.82,1.716-10.171,2.763-4.487,1.403-8.928-.329-13.388.024-1.77-12.916-6.139-24.519-18.259-31.336-2.928-1.714-5.15-2.228-8.405-.486-6.28,3.361-13.31,3.805-20.343,3.646-37.419-5.792-44.441-57.814-7.023-69.441,20.041-1.35,38.574,3.625,43.981,25.271,1.424,7.463,18.866,4.045,23.776,1.42,2.824,12.358,10.414,22.756,23.29,25.744,1.609.428,3.192.982,4.572,1.975Z" fill="#af2b8b"/>
        <path d="M305.507,295.998c-9.325,6.097-19.475,7.651-30.706,5.196,6.119,11.184,6.126,23.823,1.038,35.236-.252.589-1.451,1.332-.2,1.896,4.04,1.823,6.12,5.701,9.128,8.584,6.765,6.486,15.059,10.067,23.636,13.221,7.481,18.627-9.435,40.385-26.341,43.831-15.614,2.154-31.789-3.795-43.2-14.356,5.688-9.914,6.865-21.363,4.962-32.554-.461-2.759-1.659-4.1-3.975-4.675-2.361-.586-4.234-2.06-6.387-3.003-8.892-3.895-17.259-8.575-23.747-16.032,1.023-7.069,2.507-14.171,1.929-21.374-.299-5.252-.503-5.34,4.835-5.021,25.681,1.933,39.229-28.929,29.595-50.081,9.531-27.162,48.677-36.151,65.883-11.278,12.022,15.291,9.52,39.013-6.449,50.411Z" fill="#1144ba"/>
        <path d="M398.905,211.288c-2.445-.971-4.639.399-6.751,1.056-14.622,5.064-26.6-.784-38.833-8.137-.878-7.831-5.122-14.297-9.184-20.755,15.753-4.372,26.608-18.034,27.304-34.364,9.37,5.133,20.602,5.189,30.543,1.461,10.137,6.02,15.648,17.021,17.394,28.38-2.137,15.833-6.854,23.678-20.473,32.359Z" fill="#0c89d4"/>
        <path d="M401.984,150.549c-9.941,3.728-21.173,3.672-30.543-1.461-1.211-16.669-12.369-29.872-28.962-33.161,14.865-4.828,24.974-14.571,30.275-29.284,10.044,6.346,23.509,8.002,33.933,1.7,1.589-.917,2.471-.842,2.925,1.012,1.786,10.392,9.247,17.399,16.449,24.324-1.815,15.417-10.449,29.178-24.076,36.869Z" fill="#fca612"/>
        <path d="M305.507,295.998c15.971-11.4,18.468-35.117,6.449-50.41,11.653-8.882,28.77-5.724,40.474,1.877,8.742,5.992,12.827,15.427,15.232,25.268.851,19.009-13.641,34.291-31.308,38.42-13.141.764-23.43-4.274-30.848-15.155Z" fill="#fca612"/>
        <path d="M331.305,240.137c-6.61.198-14.233.93-19.348,5.451-4.982-7.996-13.031-11.364-21.431-14.203-4.924-7.478-7.847-15.649-8.518-24.6-.044-.591-.528-.759-.985-.941,13.983-5.545,23.101-17.299,24.825-32.427,17.678-1.965,24.595-1.885,38.288,10.036,16.653,22.958,9.942,41.885-12.832,56.685Z" fill="#af2b8b"/>
        <path d="M184.564-28.927c11.014,3.08,20.902,8.691,27.978,17.919,11.01,25.576-1.291,52.966-29.793,57.061-.604-.321-1.179-.254-1.729.133-13.59,1.714-24.937-8.47-31.276-19.49-.569-.894-1.028-1.618-2.107-1.763-.032-.165-.021-.327.033-.487.776-.642.809-1.481.63-2.376.947-7.964,2.693-15.715.068-23.642,5.692-11.528,22.032-5.159,36.197-27.356Z" fill="#f23717"/>
        <path d="M147.67,24.446c-.054.159-.065.321-.033.488-6.679,16.912-21.44,24.416-39.045,23.928l.052.024c-.086-.595-.449-.772-1.002-.66-4.953-1.686-10.025-3.132-13.958-6.885,18.836-14.885,16.59-42.191-2.121-55.299,8.059-3.081,15.178-7.624,21.337-13.601,27.208,4.473,41.701,22.032,35.4,49.629-.634.68-.833,1.475-.63,2.376Z" fill="#1144ba"/>
        <path d="M213.966,23.687c3.428-11.725,3.448-23.311-1.424-34.695,14.807.118,28.099-6.574,36.405-19.023,20.988.48,22.31,12.292,26.676,7.207,9.765-9.908,23.53-15.15,36.883-9.034,13.959,4.242,21.234,14.612,24.237,28.624,3.594,17.815-9.708,34.288-26.275,39.488-15.218,3-27.392-2.501-37.375-13.424-7.652,10.558-17.392,16.876-30.744,16.554-7.157-3.197-14.482-5.873-20.642-10.994-2.414-1.808-4.757-3.801-7.741-4.701Z" fill="#af2b8b"/>
        <path d="M29.659,144.06c17.971-4.322,29.029-22.211,26.372-40.118,19.387-3.396,25.933,8.198,33.864,5.722,13.776-4.016,24.228-13.147,27.792-27.286,6.273,5.102,12.765,9.554,21.103,10.623,1.728.26,1.346,1.664,1.028,2.811-3.747,12.956,1.079,22.443,9.103,32.25-5.582,13.331-14.943,22.03-29.651,24.173-5.68-2.831-11.153-6.006-17.47-7.409-2.62-.761-3.749-.095-4.43,2.798-3.229,13.716-11.775,22.454-25.437,26.11-8.218-2.872-16.58-2.667-25.002-1.166-5.829-9.46-10.976-19.333-17.272-28.509Z" fill="#0c89d4"/>
        <path d="M117.687,82.377c-3.564,14.138-14.015,23.271-27.792,27.285-7.801,2.502-14.585-9.128-33.864-5.72-1.822-9.515-5.724-17.859-13.506-24.024,8.604-8.238,15.203-18.902,15.009-31.225,12.632,3.248,25.669.089,36.15-7.352,3.934,3.753,9.005,5.199,13.957,6.884.17.467.468.743,1.003.66,0,0-.052-.024-.052-.024,8.004,12.756,9.506,18.276,9.095,33.515Z" fill="#fca612"/>
        <path d="M29.659,144.06c6.296,9.176,11.443,19.049,17.271,28.509-15.317,4.861-26.737,18.787-25.428,35.268-6.353-.975-12.709-1.51-19.019.226-1.86.511-2.701.278-2.643-1.961.286-16.001-8.598-30.103-22.991-36.258,11.885-6.479,21.306-17.27,22.046-31.335,9.684,5.016,19.982,6.625,30.765,5.551Z" fill="#af2b8b"/>
        <path d="M93.683,41.34c-10.481,7.442-23.519,10.6-36.15,7.352-2.429-16.101-6.876-24.619-21.619-31.909,1.948-15.774,6.783-27.008,18.429-38.184,2.154.208,3.621,1.851,5.502,2.635,3.64,1.517,7.425,2.479,11.326,2.973,6.774.858,13.449,2.836,20.391,1.833,18.714,13.112,20.955,40.413,2.121,55.298Z" fill="#f23717"/>
        <path d="M21.501,207.837c-1.927-26.859,26.726-42.885,50.43-34.103,16.008,10.817,23.979,30.601,17.077,48.959-7.415,9.185-11.5,15.506-24.066,18.197-23.713,6.011-39.208-11.353-43.442-33.054Z" fill="#fca612"/>
        <path d="M50.342,242.084c20.043-.534,26.736-3.196,38.667-19.387.642,14.202,8.751,27.284,21.956,32.937,1.126.549,2.297.966,2.306,2.665.368,6.967.37,13.918.734,20.845-9.271,13.461-15.269,18.789-30.998,23.355-12.594,1.095-27.167-2.474-34.1-13.704-2.674-6.546-5.087-13.184-10.741-17.749,5.84-5.59,9.713-12.362,11.48-20.199.634-2.814,2.359-5.706.695-8.763Z" fill="#af2b8b"/>
        <path d="M38.167,271.046c5.651,4.57,8.068,11.2,10.74,17.75,3.138,9.2.177,19.177-4.148,27.473-9.093,17.232-31.749,19.16-47.91,11.462-12.709-11.076-12.976-13.07-17.731-28.577,2.447-1.732,5.045-3.216,7.456-5.029,7.714-6.142,10.922-15.927,11.636-25.337,14.117-4.392,26.876-6.004,39.957,2.259Z" fill="#0eac84"/>
        <path d="M409.612,89.356c-.453-1.855-1.335-1.93-2.924-1.012-19.133,11.364-44.682-3.019-50.293-23.18,15.833-6.502,28.867-23.345,24.845-40.969,7.033.159,14.064-.286,20.343-3.646,3.256-1.742,5.477-1.229,8.406.485,12.117,6.814,16.492,18.426,18.258,31.337-.173,13.455-6.404,23.866-16.488,32.192-1.717,1.418-1.952,2.966-2.146,4.793Z" fill="#0eac84"/>
        <path d="M381.238,24.195c4.015,17.632-9.005,34.458-24.843,40.969-14.717,4.309-28.547-2.622-38.674-13.149-2.418-5.253-4.835-10.508-7.252-15.763,16.559-5.196,29.877-21.676,26.275-39.49,2.945-.792,12.094.454,12.671-2.937,4.594,16.989,14.526,26.892,31.823,30.37Z" fill="#1144ba"/>
        <path d="M209.714,333.342c-14.031,26.331-44.116,27.556-59.845,2.113-.689-1.09-1.16-2.281-2.633-2.487-3.751-9.742-4.679-19.698-2.259-29.906,12.044.843,22.794-3.271,31.679-10.961,11.411-7.853-7.497-9.575,6.547-41.624,14.273-1.889,19.257-4.61,29.645-14.846,14.185.528,26.586,8.817,33.225,21.237,9.638,21.147-3.916,52.016-29.595,50.08-5.339-.318-5.134-.23-4.835,5.021.579,7.201-.906,14.305-1.929,21.374Z" fill="#af2b8b"/>
        <path d="M246.073,256.866c-6.641-12.418-19.04-20.711-33.225-21.236,6.676-11.406,4.046-24.131.579-36.067,1.314-1.669.759-4.61,3.739-5.172,6.932-1.307,13.27-4,18.838-8.395,6.244,17.367,28.025,25.281,45.021,19.848.454.182.938.35.982.941.671,8.951,3.594,17.122,8.518,24.6-18.783-3.218-37.833,7.601-44.453,25.481Z" fill="#0c89d4"/>
        <path d="M344.137,183.453c-13.691-11.927-20.643-11.998-38.289-10.036-2.388-23.675-19.811-35.502-42.733-34.944,10.882-14.938,13.753-35.529,2.94-51.415,1.363-.865,2.655-.162,3.966.177,10.009,3.06,20.846.994,29.58-4.55,12.328,6.898,21.624,16.837,23.964,31.239.337,2.015.998,2.57,2.813,2.12,46.422-8.695,63.419,52.864,17.759,67.41Z" fill="#1144ba"/>
        <path d="M342.479,115.928c-5.4-.461-10.783-1.454-16.101.115-1.815.449-2.476-.105-2.813-2.12-2.338-14.402-11.641-24.34-23.964-31.241,9.684-6.321,17.531-15.646,17.376-28.291-.01-.864-.205-1.804.745-2.375,10.128,10.528,23.955,17.456,38.672,13.149,3.322,10.403,7.818,14.952,16.358,21.479-5.299,14.714-15.409,24.457-30.273,29.285Z" fill="#f23717"/>
        <path d="M263.115,138.472c16.635-.506,35.343,6.797,40.046,24.172,7.992,17.628-5.647,36.842-22.138,43.2-16.991,5.432-38.78-2.482-45.018-19.85,10.499-10.114,16.016-25.342,11.979-39.683,5.311-2.098,9.968-5.458,15.132-7.839Z" fill="#f23717"/>
        <path d="M117.687,82.377c.411-15.267-1.096-20.76-9.095-33.515,17.614.486,32.364-7.018,39.045-23.928,1.08.144,1.538.867,2.107,1.762,6.14,10.651,16.48,20.06,29.511,19.728-2.294,5.343-2.86,10.941-2.568,16.692.237,4.67.435,4.919,5.178,5.594,14.147,2.043,22.584,14.738,25.963,27.549,2.348,9.961-1.667,19.398-4.902,28.602-6.029,8.359-14.365,12.047-24.056,13.92-8.051-.089-15.634-1.811-22.639-5.993-2.501-1.493-4.405-3.885-7.309-4.725-7.996-9.731-12.862-19.404-9.101-32.252.317-1.147.699-2.552-1.029-2.811-8.338-1.069-14.831-5.523-21.103-10.623Z" fill="#af2b8b"/>
        <path d="M207.828,96.26c-3.377-12.809-11.82-25.511-25.964-27.55-4.742-.675-4.94-.924-5.177-5.594-.292-5.751.274-11.349,2.568-16.692.589-.08,1.178-.159,1.764-.239,13.799-.943,26.683-9.968,32.948-22.498,2.984.9,5.327,2.893,7.741,4.702,6.161,5.121,13.485,7.797,20.643,10.994,12.944,27.285-3.432,57.019-34.522,56.877Z" fill="#1144ba"/>
        <path d="M147.67,24.446c-.204-.902-.004-1.697.63-2.376.18.896.146,1.734-.63,2.376Z" fill="#af2b8b"/>
        <path d="M182.749,46.052c-.551.388-1.125.48-1.731.133.552-.386,1.127-.454,1.731-.133Z" fill="#af2b8b"/>
        <path d="M108.643,48.885c-.534.083-.832-.193-1.003-.66.554-.112.916.065,1.003.66Z" fill="#af2b8b"/>
        <path d="M245.346,70.471c2.671-10.623,1.422-21.212-2.996-31.089,13.351.322,23.092-5.996,30.743-16.554,9.984,10.922,22.158,16.424,37.375,13.424,2.417,5.255,4.834,10.51,7.252,15.764-.949.57-.754,1.51-.744,2.374.157,12.642-7.694,21.972-17.376,28.291-8.733,5.547-19.571,7.612-29.58,4.552-1.311-.339-2.603-1.041-3.966-.175-6.129-3.922-12.578-7.308-17.192-13.163-1.017-1.241-1.715-2.941-3.517-3.425Z" fill="#0c89d4"/>
        <path d="M144.978,303.061c-16.821-3.202-21.787-11.011-30.971-23.917-.365-6.927-.367-13.878-.736-20.845-.008-1.7-1.179-2.116-2.306-2.665-13.204-5.652-21.315-18.738-21.955-32.938,6.902-18.358-1.068-38.145-17.078-48.963,28.536-7.373,21.834-32.268,29.868-28.909,19.331,3.773,35.22,22.505,30.651,42.733-2.301,6.475,15.917,8.991,20.261,8.736-8.526,17.62-2.785,43.23,16.402,51.12,4.511,1.882,9.398,2.022,14.09,3.063-14.05,32.089,4.871,33.75-6.546,41.624-8.884,7.688-19.638,11.805-31.679,10.961Z" fill="#1144ba"/>
        <path d="M152.71,196.294c-4.323.253-22.535-2.235-20.261-8.736,3.318-13.262-3.705-26.428-13.179-35.324,14.707-2.143,24.069-10.841,29.65-24.172,2.903.841,4.808,3.233,7.309,4.726,7.005,4.182,14.588,5.904,22.641,5.992,7.108,12.942,10.779,26.03,3.251,39.976-6.976,9.959-18.625,13.374-29.411,17.538Z" fill="#f23717"/>
        <path d="M152.71,196.294c10.786-4.164,22.435-7.579,29.412-17.538,4.118,2.816,10.065,2.383,14.509,5.212,7.026,3.714,12.586,8.901,16.796,15.594,3.467,11.937,6.097,24.662-.58,36.067-10.381,10.229-15.377,12.962-29.644,14.846-4.693-1.041-9.58-1.181-14.09-3.063-19.188-7.892-24.928-33.495-16.403-51.12Z" fill="#0eac84"/>
        <path d="M213.427,199.562c-4.21-6.693-9.771-11.88-16.796-15.594-4.449-2.833-10.384-2.39-14.509-5.212,7.528-13.946,3.858-27.036-3.251-39.976,9.689-1.872,18.027-5.561,24.054-13.918.882.377,1.372,1.176,1.745,1.945,2.777,5.735,7.525,9.459,12.735,12.77,8.475,5.385,17.397,8.785,27.659,6.534,1.014-.222,1.953.059,2.92.2,5.982,21.176-8.757,45.142-30.818,48.079-2.981.562-2.425,3.503-3.739,5.172Z" fill="#1144ba"/>
        <path d="M247.984,146.311c-.968-.141-1.906-.423-2.92-.2-10.262,2.251-19.184-1.149-27.659-6.534-5.211-3.311-9.958-7.035-12.735-12.77-.373-.769-.863-1.568-1.745-1.945,3.235-9.206,7.252-18.64,4.903-28.604,16.627.334,32.282-9.844,37.518-25.786,1.802.483,2.5,2.182,3.517,3.424,4.615,5.855,11.063,9.24,17.192,13.162,10.812,15.885,7.942,36.476-2.94,51.414-5.164,2.381-9.821,5.742-15.132,7.839Z" fill="#0eac84"/>
      </g>
    </g>
  </g>
</svg>